<svg width="512" height="512" viewBox="0 0 512 512" fill="none" xmlns="http://www.w3.org/2000/svg">
<g clip-path="url(#clip0_442_1031)">
<path d="M198.081 389.212H81.0857C74.688 389.212 69.502 394.398 69.502 400.796C69.502 407.193 74.688 412.379 81.0857 412.379H198.081C204.479 412.379 209.665 407.193 209.665 400.796C209.665 394.398 204.479 389.212 198.081 389.212ZM372.995 389.212H256C249.602 389.212 244.416 394.398 244.416 400.796C244.416 407.193 249.602 412.379 256 412.379H372.995C379.392 412.379 384.579 407.193 384.579 400.796C384.579 394.398 379.392 389.212 372.995 389.212ZM372.995 99.6191H81.0857C74.688 99.6191 69.502 104.805 69.502 111.203C69.502 117.601 74.688 122.787 81.0857 122.787H372.995C379.392 122.787 384.579 117.601 384.579 111.203C384.579 104.805 379.392 99.6191 372.995 99.6191ZM372.995 157.538H256C249.602 157.538 244.416 162.724 244.416 169.121C244.416 175.519 249.602 180.705 256 180.705H372.995C379.392 180.705 384.579 175.519 384.579 169.121C384.579 162.724 379.392 157.538 372.995 157.538ZM372.995 215.456H256C249.602 215.456 244.416 220.642 244.416 227.04C244.416 233.438 249.602 238.624 256 238.624H372.995C379.392 238.624 384.579 233.438 384.579 227.04C384.579 220.642 379.392 215.456 372.995 215.456ZM372.995 273.375H256C249.602 273.375 244.416 278.561 244.416 284.959C244.416 291.356 249.602 296.542 256 296.542H372.995C379.392 296.542 384.579 291.356 384.579 284.959C384.579 278.561 379.392 273.375 372.995 273.375ZM372.995 331.293H256C249.602 331.293 244.416 336.479 244.416 342.877C244.416 349.275 249.602 354.461 256 354.461H372.995C379.392 354.461 384.579 349.275 384.579 342.877C384.579 336.479 379.392 331.293 372.995 331.293ZM198.081 331.293H81.0857C74.688 331.293 69.502 336.479 69.502 342.877C69.502 349.275 74.688 354.461 81.0857 354.461H198.081C204.479 354.461 209.665 349.275 209.665 342.877C209.665 336.479 204.479 331.293 198.081 331.293ZM198.081 157.538H81.0857C74.688 157.538 69.502 162.724 69.502 169.121V286.117C69.502 292.515 74.688 297.701 81.0857 297.701H198.081C204.479 297.701 209.665 292.515 209.665 286.117V169.121C209.665 162.724 204.479 157.538 198.081 157.538ZM186.497 274.533H92.6694V180.705H186.497V274.533Z" fill="black"/>
<path d="M488.833 88.0357H454.081V53.2846C454.081 40.5101 443.689 30.1172 430.914 30.1172H23.1674C10.3929 30.1172 0 40.5101 0 53.2846V423.963C0 455.9 25.9823 481.882 57.9186 481.882H454.081C486.018 481.882 512 455.9 512 423.963V111.203C512 98.4286 501.607 88.0357 488.833 88.0357ZM488.833 423.963C488.833 443.125 473.243 458.714 454.081 458.714H57.9186C38.7568 458.714 23.1674 443.125 23.1674 423.963V53.2846H430.914V406.588C430.914 422.556 443.905 435.547 459.873 435.547C466.27 435.547 471.457 430.361 471.457 423.963C471.457 417.566 466.27 412.38 459.873 412.38C456.68 412.38 454.081 409.781 454.081 406.588V111.203H488.833V423.963Z" fill="black"/>
</g>
<defs>
<clipPath id="clip0_442_1031">
<rect width="512" height="512" fill="white"/>
</clipPath>
</defs>
</svg>
