<svg width="91" height="91" viewBox="0 0 91 91" fill="none" xmlns="http://www.w3.org/2000/svg">
<path fill-rule="evenodd" clip-rule="evenodd" d="M79.9495 18.6575L51.3125 1.65847C47.8945 -0.370531 43.6815 -0.370531 40.2635 1.65847L11.6265 18.6575C8.20952 20.6865 6.10352 24.4355 6.10352 28.4935V62.4915C6.10352 66.5485 8.20952 70.2995 11.6275 72.3285L40.2645 89.3245C41.9735 90.3395 43.8795 90.8455 45.7885 90.8455C47.6965 90.8455 49.6025 90.3395 51.3115 89.3245L79.9485 72.3285C83.3665 70.2995 85.4735 66.5485 85.4735 62.4915V28.4935C85.4735 24.4355 83.3665 20.6865 79.9495 18.6575Z" fill="#FEFEFE"/>
<path fill-rule="evenodd" clip-rule="evenodd" d="M41.2655 87.5837L12.6285 70.5877C9.82752 68.9247 8.08752 65.8227 8.08752 62.4907V28.4937C8.08752 25.1617 9.82752 22.0597 12.6275 20.3977L41.2655 3.39872C42.6385 2.58372 44.2025 2.15272 45.7885 2.15272C47.3735 2.15272 48.9375 2.58372 50.3115 3.39872L78.9485 20.3977C81.3085 21.7987 82.9005 24.2247 83.3485 26.9457C82.3985 24.9187 80.2565 24.3677 77.7605 25.8257L50.6685 42.5597C47.2905 44.5347 44.7995 46.7507 44.7975 50.8237V84.2067C44.7955 86.6457 45.7805 88.2257 47.2935 88.6837C46.7965 88.7697 46.2955 88.8297 45.7885 88.8297C44.2025 88.8297 42.6385 88.3987 41.2655 87.5837ZM79.9495 18.6567L51.3125 1.65872C49.6035 0.643719 47.6955 0.136719 45.7885 0.136719C43.8805 0.136719 41.9725 0.643719 40.2635 1.65872L11.6265 18.6567C8.20952 20.6857 6.10352 24.4357 6.10352 28.4937V62.4907C6.10352 66.5477 8.20952 70.2987 11.6275 72.3277L40.2645 89.3247C41.9745 90.3387 43.8805 90.8457 45.7885 90.8457C47.6965 90.8457 49.6025 90.3387 51.3115 89.3247L79.9495 72.3277C83.3675 70.2987 85.4735 66.5477 85.4735 62.4907V28.4937C85.4735 24.4357 83.3675 20.6857 79.9495 18.6567Z" fill="#3E474A"/>
<path fill-rule="evenodd" clip-rule="evenodd" d="M72.4424 65.7782L65.3114 70.0462C65.1224 70.1562 64.9834 70.2802 64.9824 70.5072V72.3732C64.9824 72.6012 65.1354 72.6962 65.3244 72.5852L72.5654 68.1842C72.7544 68.0742 72.7834 67.8632 72.7844 67.6362V65.9902C72.7844 65.7632 72.6314 65.6682 72.4424 65.7782Z" fill="#47B353"/>
<path fill-rule="evenodd" clip-rule="evenodd" d="M57.2575 50.0718C57.4885 49.9548 57.6785 50.0988 57.6815 50.4008L57.7055 52.8678C58.7385 52.4568 59.6355 52.3468 60.4485 52.5348C60.6245 52.5818 60.7025 52.8218 60.6305 53.1068L60.0875 55.2928C60.0455 55.4578 59.9525 55.6248 59.8405 55.7288C59.7935 55.7748 59.7455 55.8108 59.6975 55.8348C59.6245 55.8718 59.5525 55.8838 59.4835 55.8698C59.1125 55.7858 58.2305 55.5928 56.8425 56.2958C55.3865 57.0328 54.8775 58.2978 54.8875 59.2368C54.8995 60.3578 55.4745 60.6978 57.4605 60.7318C60.1065 60.7758 61.2495 61.9318 61.2775 64.5968C61.3045 67.2138 59.9075 70.0238 57.7705 71.7458L57.8175 74.1878C57.8205 74.4818 57.6295 74.8188 57.3985 74.9358L55.9525 75.7688C55.7205 75.8858 55.5305 75.7418 55.5275 75.4478L55.5025 73.0458C54.2635 73.5608 53.0085 73.6848 52.2065 73.3628C52.0555 73.3038 51.9905 73.0808 52.0505 72.8268L52.5745 70.6188C52.6165 70.4448 52.7085 70.2708 52.8335 70.1598C52.8775 70.1168 52.9235 70.0838 52.9695 70.0608C53.0525 70.0188 53.1335 70.0098 53.2025 70.0358C54.0665 70.3268 55.1715 70.1908 56.2345 69.6528C57.5845 68.9698 58.4875 67.5928 58.4735 66.2248C58.4605 64.9838 57.7885 64.4678 56.1545 64.4558C54.0745 64.4618 52.1355 64.0518 52.1035 60.9898C52.0775 58.4688 53.3885 55.8458 55.4635 54.1868L55.4375 51.7218C55.4345 51.4188 55.6195 51.0858 55.8575 50.9658L57.2575 50.0718Z" fill="#FEFEFE"/>
</svg>
