<svg width="64" height="64" viewBox="0 0 64 64" fill="none" xmlns="http://www.w3.org/2000/svg">
<path fill-rule="evenodd" clip-rule="evenodd" d="M1.40796 28.6009C-0.469318 30.4782 -0.469322 33.5218 1.40796 35.3991L10.3951 44.3862L12.5089 40.7249C12.524 40.6987 12.5405 40.6738 12.5582 40.6501C12.6491 40.3375 12.9376 40.109 13.2796 40.109H25.2972C25.7121 40.109 26.0483 40.4453 26.0483 40.8601C26.0483 41.275 25.7121 41.6112 25.2972 41.6112H13.7318L11.4948 45.4859L13.3696 47.3608L24.9146 43.1587C25.3044 43.0169 25.7355 43.2179 25.8773 43.6077C26.0192 43.9975 25.8182 44.4285 25.4284 44.5704L14.5417 48.5328L28.6009 62.592C30.4782 64.4693 33.5218 64.4693 35.3991 62.592L44.5085 53.4827L47.0933 43.8359L32.5161 49.1416C32.1263 49.2835 31.6953 49.0825 31.5534 48.6927C31.4115 48.3029 31.6125 47.8719 32.0023 47.73L47.568 42.0645L53.4836 19.9871C53.5167 19.8638 53.5785 19.756 53.66 19.6688L40.4826 6.4914L13.8091 16.1997L13.2077 16.8012L16.702 26.4018L20.7828 24.9166L25.7802 16.2607C25.9876 15.9015 26.447 15.7784 26.8062 15.9858C27.1655 16.1932 27.2886 16.6526 27.0812 17.0118L22.9788 24.1172L27.3118 22.5402C27.7016 22.3983 28.1326 22.5993 28.2745 22.9891C28.4163 23.3789 28.2154 23.8099 27.8256 23.9518L21.8103 26.1412L18.0679 32.6232C17.8605 32.9825 17.4011 33.1056 17.0419 32.8982C16.6826 32.6908 16.5595 32.2314 16.7669 31.8721L19.6142 26.9405L16.5326 28.0621C16.2724 28.1568 15.9937 28.0987 15.7951 27.9336C15.6795 27.8488 15.5868 27.73 15.5341 27.5852L12.0356 17.9732L1.40796 28.6009ZM16.3225 13.6863L39.3105 5.31936L35.3991 1.40796C33.5218 -0.469318 30.4782 -0.469322 28.6009 1.40796L16.3225 13.6863ZM54.8147 20.8235L49.2912 41.4373L60.3586 37.4091L56.3171 22.326L54.8147 20.8235ZM58.4416 24.4504L61.6324 36.3588L62.592 35.3991C64.4693 33.5218 64.4693 30.4782 62.5921 28.6009L58.4416 24.4504ZM58.1965 39.7947L48.8166 43.2087L46.633 51.3582L58.1965 39.7947ZM27.3154 32.7916C26.9256 32.9335 26.7246 33.3645 26.8665 33.7543C27.0084 34.1441 27.4394 34.3451 27.8292 34.2033L44.7686 28.0378C45.1584 27.8959 45.3594 27.4649 45.2175 27.0751C45.0756 26.6853 44.6446 26.4843 44.2548 26.6262L37.6972 29.013C37.6991 28.8821 37.6668 28.749 37.5966 28.6274L28.5833 13.0159C28.3759 12.6567 27.9165 12.5336 27.5573 12.741C27.198 12.9484 27.0749 13.4078 27.2823 13.767L36.2956 29.3785C36.3196 29.42 36.3469 29.4584 36.3771 29.4934L27.3154 32.7916ZM21.2736 38.4819C21.0662 38.8411 21.1892 39.3005 21.5485 39.5079C21.9077 39.7153 22.3671 39.5922 22.5745 39.233L31.5878 23.6215C31.7952 23.2623 31.6721 22.8029 31.3129 22.5955C30.9536 22.3881 30.4943 22.5112 30.2868 22.8704L21.2736 38.4819Z" fill="url(#paint0_linear_340_998)"/>
<defs>
<linearGradient id="paint0_linear_340_998" x1="32.0189" y1="0.292206" x2="32.0189" y2="65.9689" gradientUnits="userSpaceOnUse">
<stop stop-color="#00DADA"/>
<stop offset="1" stop-color="#5200FF" stop-opacity="0"/>
</linearGradient>
</defs>
</svg>
