<svg width="512" height="512" viewBox="0 0 512 512" fill="none" xmlns="http://www.w3.org/2000/svg">
<path fill-rule="evenodd" clip-rule="evenodd" d="M11.2637 228.807C-3.75455 243.825 -3.75457 268.175 11.2637 283.193L83.1605 355.09L100.071 325.8C100.192 325.59 100.324 325.39 100.466 325.201C101.193 322.7 103.501 320.872 106.236 320.872H202.378C205.697 320.872 208.387 323.563 208.387 326.881C208.387 330.2 205.697 332.89 202.378 332.89H109.854L91.9581 363.887L106.957 378.886L199.317 345.27C202.436 344.135 205.884 345.743 207.019 348.861C208.154 351.98 206.546 355.428 203.427 356.563L116.333 388.263L228.807 500.736C243.825 515.755 268.175 515.755 283.193 500.736L356.068 427.861L376.747 350.687L260.129 393.133C257.01 394.268 253.562 392.66 252.427 389.541C251.292 386.423 252.9 382.975 256.018 381.84L380.544 336.516L427.869 159.897C428.133 158.91 428.628 158.048 429.28 157.351L323.86 51.9312L110.473 129.598L105.661 134.409L133.616 211.215L166.262 199.332L206.242 130.086C207.901 127.212 211.576 126.227 214.45 127.886C217.324 129.546 218.309 133.221 216.649 136.095L183.831 192.938L218.494 180.321C221.613 179.186 225.061 180.794 226.196 183.913C227.331 187.031 225.723 190.479 222.604 191.614L174.483 209.129L144.543 260.986C142.884 263.86 139.209 264.845 136.335 263.185C133.461 261.526 132.476 257.851 134.135 254.977L156.914 215.524L132.261 224.497C130.179 225.255 127.95 224.79 126.36 223.469C125.436 222.79 124.695 221.84 124.273 220.682L96.2851 143.786L11.2637 228.807ZM130.58 109.49L314.484 42.5549L283.193 11.2637C268.175 -3.75455 243.825 -3.75457 228.807 11.2637L130.58 109.49ZM438.518 166.588L394.33 331.499L482.869 299.273L450.537 178.608L438.518 166.588ZM467.533 195.603L493.059 290.87L500.736 283.193C515.755 268.175 515.755 243.825 500.736 228.807L467.533 195.603ZM465.572 318.358L390.533 345.67L373.064 410.866L465.572 318.358ZM218.523 262.333C215.405 263.468 213.797 266.916 214.932 270.035C216.067 273.153 219.515 274.761 222.633 273.626L358.149 224.303C361.267 223.167 362.875 219.719 361.74 216.601C360.605 213.482 357.157 211.875 354.038 213.01L301.578 232.104C301.593 231.056 301.334 229.992 300.772 229.019L228.666 104.127C227.007 101.253 223.332 100.269 220.458 101.928C217.584 103.587 216.599 107.262 218.259 110.136L290.365 235.028C290.557 235.36 290.775 235.667 291.017 235.948L218.523 262.333ZM170.189 307.855C168.529 310.729 169.514 314.404 172.388 316.063C175.262 317.722 178.937 316.738 180.596 313.864L252.702 188.972C254.362 186.098 253.377 182.423 250.503 180.764C247.629 179.105 243.954 180.09 242.295 182.963L170.189 307.855Z" fill="url(#paint0_linear_340_998)"/>
<defs>
<linearGradient id="paint0_linear_340_998" x1="256.151" y1="2.33765" x2="256.151" y2="527.751" gradientUnits="userSpaceOnUse">
<stop stop-color="#00DADA"/>
<stop offset="1" stop-color="#5200FF" stop-opacity="0"/>
</linearGradient>
</defs>
</svg>
