<svg width="97" height="97" viewBox="0 0 97 97" fill="none" xmlns="http://www.w3.org/2000/svg">
<path d="M92.7099 44.4088L52.5909 4.29184C50.2809 1.98084 46.5339 1.98084 44.2219 4.29184L35.8919 12.6238L46.4589 23.1908C48.9149 22.3608 51.7309 22.9178 53.6879 24.8758C55.6569 26.8458 56.2089 29.6858 55.3579 32.1508L65.5439 42.3358C68.0089 41.4858 70.8509 42.0358 72.8189 44.0068C75.5689 46.7568 75.5689 51.2128 72.8189 53.9648C70.0669 56.7158 65.6109 56.7158 62.8579 53.9648C60.7899 51.8948 60.2779 48.8548 61.3269 46.3068L51.8269 36.8078V61.8048C52.4969 62.1368 53.1299 62.5788 53.6879 63.1368C56.4379 65.8868 56.4379 70.3428 53.6879 73.0958C50.9379 75.8448 46.4789 75.8448 43.7309 73.0958C40.9809 70.3418 40.9809 65.8858 43.7309 63.1368C44.4109 62.4578 45.1979 61.9438 46.0379 61.5998V36.3698C45.1979 36.0258 44.4129 35.5168 43.7309 34.8328C41.6479 32.7508 41.1469 29.6928 42.2149 27.1348L31.7979 16.7158L4.28794 44.2228C1.97694 46.5358 1.97694 50.2828 4.28794 52.5938L44.4089 92.7118C46.7189 95.0228 50.4649 95.0228 52.7779 92.7118L92.7099 52.7798C95.0209 50.4688 95.0209 46.7198 92.7099 44.4088Z" fill="#F05133"/>
</svg>
