<svg width="300" height="300" viewBox="0 0 300 300" fill="none" xmlns="http://www.w3.org/2000/svg">
<g clip-path="url(#clip0_476_1034)">
<path d="M112.937 226.795C112.937 226.795 101.9 233.214 120.792 235.386C143.68 237.997 155.378 237.622 180.6 232.849C180.6 232.849 187.232 237.006 196.493 240.608C139.95 264.841 68.526 239.204 112.937 226.795Z" fill="#5382A1"/>
<path d="M106.028 195.172C106.028 195.172 93.6481 204.336 112.555 206.291C137.004 208.814 156.313 209.02 189.723 202.586C189.723 202.586 194.345 207.271 201.611 209.833C133.248 229.824 57.1038 211.41 106.028 195.172Z" fill="#5382A1"/>
<path d="M164.275 141.531C178.207 157.571 160.614 172.005 160.614 172.005C160.614 172.005 195.99 153.743 179.744 130.874C164.57 109.548 152.934 98.9521 215.927 62.418C215.927 62.418 117.048 87.1135 164.275 141.531Z" fill="#F8981D"/>
<path d="M239.056 250.185C239.056 250.185 247.224 256.915 230.06 262.122C197.423 272.009 94.2218 274.994 65.5527 262.516C55.247 258.032 74.5732 251.811 80.6525 250.505C86.9926 249.13 90.6157 249.386 90.6157 249.386C79.1547 241.313 16.5361 265.24 58.8086 272.092C174.092 290.788 268.959 263.673 239.056 250.185Z" fill="#5382A1"/>
<path d="M118.245 162.408C118.245 162.408 65.7502 174.877 99.6554 179.405C113.971 181.321 142.509 180.888 169.092 178.66C190.817 176.828 212.631 172.931 212.631 172.931C212.631 172.931 204.971 176.212 199.429 179.996C146.121 194.016 43.1402 187.494 72.787 173.153C97.8594 161.034 118.245 162.408 118.245 162.408Z" fill="#5382A1"/>
<path d="M212.414 215.045C266.604 186.886 241.549 159.825 224.061 163.471C219.774 164.363 217.863 165.136 217.863 165.136C217.863 165.136 219.454 162.644 222.494 161.565C257.091 149.401 283.698 197.439 211.325 216.464C211.325 216.464 212.164 215.715 212.414 215.045Z" fill="#5382A1"/>
<path d="M179.743 3.42383C179.743 3.42383 209.754 33.4451 151.279 79.6093C104.388 116.641 140.586 137.755 151.259 161.879C123.888 137.184 103.801 115.444 117.277 95.2112C137.056 65.5107 191.852 51.1108 179.743 3.42383Z" fill="#F8981D"/>
<path d="M123.57 291.35C175.585 294.68 255.461 289.503 257.353 264.891C257.353 264.891 253.716 274.221 214.365 281.631C169.968 289.986 115.212 289.01 82.7354 283.656C82.7354 283.656 89.3837 289.158 123.57 291.35Z" fill="#5382A1"/>
</g>
<defs>
<clipPath id="clip0_476_1034">
<rect width="300" height="300" fill="white"/>
</clipPath>
</defs>
</svg>
