<svg width="20" height="20" viewBox="0 0 20 20" fill="none" xmlns="http://www.w3.org/2000/svg">
<path d="M14.815 19.0625C14.815 19.3111 14.7016 19.5496 14.4997 19.7254C14.2978 19.9012 14.0239 20 13.7384 20H3.58877C2.6373 19.9991 1.7251 19.6695 1.05231 19.0837C0.379513 18.4978 0.0010686 17.7035 0 16.875V3.125C0.0010686 2.29648 0.379513 1.50217 1.05231 0.916319C1.7251 0.330469 2.6373 0.000930511 3.58877 0L13.7384 0C14.0239 0 14.2978 0.098772 14.4997 0.274587C14.7016 0.450403 14.815 0.68886 14.815 0.9375C14.815 1.18614 14.7016 1.4246 14.4997 1.60041C14.2978 1.77623 14.0239 1.875 13.7384 1.875H3.58877C3.20818 1.87536 2.84329 2.00717 2.57417 2.24152C2.30505 2.47586 2.15368 2.79359 2.15326 3.125V16.875C2.15366 17.2064 2.30504 17.5242 2.57416 17.7585C2.84328 17.9928 3.20817 18.1246 3.58877 18.125H13.7384C14.0239 18.125 14.2978 18.2238 14.4997 18.3996C14.7016 18.5754 14.815 18.8139 14.815 19.0625ZM19.6847 9.33711L14.5684 4.88195C14.4688 4.7933 14.35 4.72273 14.2189 4.67433C14.0878 4.62592 13.947 4.60065 13.8046 4.59996C13.6622 4.59927 13.5211 4.62319 13.3894 4.67033C13.2577 4.71747 13.138 4.78689 13.0373 4.87457C12.9366 4.96226 12.8569 5.06646 12.8028 5.18116C12.7487 5.29585 12.7212 5.41875 12.722 5.54275C12.7229 5.66674 12.7519 5.78937 12.8075 5.90352C12.8631 6.01767 12.9442 6.12109 13.046 6.20777L16.3242 9.0625H7.84859C7.56305 9.0625 7.28921 9.16127 7.0873 9.33709C6.88539 9.5129 6.77196 9.75136 6.77196 10C6.77196 10.2486 6.88539 10.4871 7.0873 10.6629C7.28921 10.8387 7.56305 10.9375 7.84859 10.9375H16.3241L13.0458 13.7922C12.9454 13.8792 12.8657 13.9825 12.8112 14.0964C12.7567 14.2102 12.7286 14.3323 12.7284 14.4556C12.7282 14.579 12.756 14.7011 12.8101 14.8151C12.8642 14.929 12.9436 15.0326 13.0437 15.1198C13.1439 15.207 13.2628 15.2762 13.3937 15.3233C13.5246 15.3704 13.6649 15.3946 13.8065 15.3944C13.9481 15.3942 14.0883 15.3697 14.2191 15.3223C14.3498 15.2749 14.4685 15.2055 14.5684 15.118L19.6847 10.6629C19.8866 10.4871 20 10.2487 20 10C20 9.75138 19.8866 9.51292 19.6847 9.33711Z" fill="black"/>
</svg>
