<svg width="512" height="512" viewBox="0 0 512 512" fill="none" xmlns="http://www.w3.org/2000/svg">
<path d="M307.451 417.63L259.354 393.582C258.312 393.061 257.164 392.79 256 392.79C254.835 392.79 253.687 393.061 252.646 393.582L204.549 417.63C203.303 418.253 202.255 419.21 201.523 420.395C200.791 421.58 200.403 422.945 200.403 424.338V480.451C200.402 481.844 200.79 483.209 201.523 484.394C202.255 485.579 203.303 486.536 204.549 487.159L252.646 511.207C253.687 511.728 254.835 511.999 256 511.999C257.164 511.999 258.312 511.728 259.354 511.207L307.451 487.159C308.696 486.536 309.744 485.579 310.476 484.394C311.208 483.209 311.596 481.844 311.597 480.451V424.338C311.596 422.945 311.208 421.58 310.476 420.395C309.744 419.21 308.696 418.253 307.451 417.63ZM256 408.676L287.326 424.339L256 440.002L224.674 424.339L256 408.676ZM215.403 436.474L248.5 453.023V492.365L215.403 475.817V436.474ZM263.5 492.365V453.023L296.597 436.475V475.817L263.5 492.365ZM435.709 417.63L387.612 393.582C386.57 393.061 385.422 392.79 384.258 392.79C383.093 392.79 381.945 393.061 380.904 393.582L332.807 417.63C331.561 418.253 330.513 419.21 329.781 420.395C329.049 421.58 328.661 422.945 328.661 424.338V480.451C328.66 481.844 329.048 483.209 329.781 484.394C330.513 485.579 331.561 486.536 332.807 487.159L380.904 511.207C381.945 511.728 383.093 511.999 384.258 511.999C385.422 511.999 386.57 511.728 387.612 511.207L435.709 487.159C436.954 486.536 438.002 485.579 438.734 484.394C439.466 483.209 439.854 481.844 439.855 480.451V424.338C439.854 422.945 439.466 421.58 438.734 420.395C438.002 419.21 436.954 418.253 435.709 417.63ZM384.258 408.676L415.584 424.339L384.258 440.003L352.931 424.34L384.258 408.676ZM343.661 436.474L376.758 453.023V492.365L343.661 475.817V436.474ZM391.758 492.365V453.023L424.855 436.474V475.817L391.758 492.365ZM179.193 417.63L131.096 393.582C130.054 393.061 128.906 392.79 127.742 392.79C126.577 392.79 125.429 393.061 124.388 393.582L76.2905 417.63C75.0448 418.253 73.9972 419.21 73.2649 420.395C72.5326 421.58 72.1447 422.945 72.1445 424.338V480.451C72.1445 481.844 72.5323 483.209 73.2646 484.394C73.9969 485.579 75.0447 486.536 76.2905 487.159L124.388 511.207C125.429 511.728 126.577 511.999 127.742 511.999C128.906 511.999 130.054 511.728 131.096 511.207L179.193 487.159C180.438 486.536 181.486 485.579 182.218 484.394C182.95 483.209 183.338 481.844 183.339 480.451V424.338C183.338 422.945 182.95 421.58 182.218 420.395C181.486 419.21 180.438 418.253 179.193 417.63ZM127.742 408.676L159.069 424.339L127.742 440.002L96.4155 424.339L127.742 408.676ZM87.1445 436.474L120.242 453.022V492.364L87.1445 475.816V436.474ZM135.242 492.365V453.023L168.339 436.474V475.817L135.242 492.365ZM247.468 372.143V316.03C247.468 314.637 247.08 313.272 246.347 312.087C245.615 310.902 244.567 309.945 243.322 309.322L195.225 285.273C194.183 284.752 193.035 284.481 191.871 284.481C190.706 284.481 189.558 284.752 188.517 285.273L140.42 309.322C139.174 309.945 138.126 310.902 137.394 312.087C136.661 313.272 136.274 314.637 136.274 316.03V372.143C136.273 373.536 136.661 374.901 137.394 376.086C138.126 377.271 139.174 378.228 140.42 378.851L188.517 402.899C189.558 403.42 190.706 403.691 191.871 403.691C193.035 403.691 194.183 403.42 195.225 402.899L243.322 378.851C244.567 378.228 245.615 377.271 246.347 376.086C247.08 374.901 247.468 373.536 247.468 372.143ZM191.871 300.367L223.197 316.03L191.871 331.693L160.545 316.03L191.871 300.367ZM191.871 387.807L151.274 367.508V328.166L184.371 344.714V355.913C184.371 360.056 187.729 363.413 191.871 363.413C196.013 363.413 199.371 360.056 199.371 355.913V344.714L232.468 328.166V367.508L191.871 387.807ZM375.726 372.143V316.03C375.726 314.637 375.338 313.272 374.605 312.087C373.873 310.902 372.825 309.945 371.58 309.322L323.483 285.273C322.441 284.752 321.293 284.481 320.129 284.481C318.964 284.481 317.816 284.752 316.775 285.273L268.678 309.322C267.432 309.945 266.384 310.902 265.652 312.087C264.919 313.272 264.532 314.637 264.532 316.03V372.143C264.531 373.536 264.919 374.901 265.652 376.086C266.384 377.271 267.432 378.228 268.678 378.851L316.775 402.899C317.816 403.42 318.964 403.691 320.129 403.691C321.293 403.691 322.441 403.42 323.483 402.899L371.58 378.851C372.825 378.228 373.873 377.271 374.605 376.086C375.338 374.901 375.726 373.536 375.726 372.143ZM320.129 300.367L351.455 316.03L320.129 331.693L288.803 316.03L320.129 300.367ZM279.532 328.166L312.629 344.714V384.056L279.532 367.508V328.166ZM327.629 384.056V344.714L360.726 328.166V367.508L327.629 384.056ZM166.104 126.48L171.442 126.876C173.371 133.909 176.181 140.669 179.805 146.998L176.239 151.184C171.236 157.055 171.589 165.927 177.044 171.382L188.285 182.623C193.77 188.107 202.671 188.435 208.546 183.372L212.628 179.853C218.954 183.481 225.714 186.296 232.746 188.231L233.181 193.674C233.796 201.363 240.32 207.387 248.033 207.387H263.929C271.688 207.387 278.215 201.326 278.787 193.59L279.183 188.251C286.215 186.321 292.976 183.511 299.305 179.888L303.491 183.454C309.363 188.457 318.235 188.104 323.689 182.649L334.928 171.41C340.415 165.924 340.744 157.023 335.679 151.146L332.161 147.064C335.788 140.738 338.603 133.979 340.538 126.947L345.98 126.512C353.669 125.898 359.693 119.374 359.693 111.659V95.765C359.693 88.007 353.632 81.481 345.896 80.907L340.557 80.511C338.627 73.4787 335.817 66.7183 332.194 60.39L335.761 56.203C340.763 50.331 340.409 41.459 334.955 36.005L323.716 24.766C318.23 19.279 309.33 18.95 303.453 24.015L299.37 27.534C293.043 23.9058 286.284 21.0911 279.253 19.157L278.818 13.713C278.204 6.023 271.681 0 263.967 0H248.071C240.312 0 233.785 6.061 233.213 13.797L232.817 19.136C225.784 21.066 219.023 23.8759 212.695 27.499L208.508 23.932C202.635 18.929 193.763 19.283 188.31 24.738L177.07 35.977C171.584 41.463 171.255 50.365 176.32 56.24L179.838 60.322C176.209 66.6486 173.395 73.4081 171.461 80.44L166.018 80.875C158.329 81.489 152.306 88.014 152.306 95.728V111.623C152.307 119.379 158.367 125.906 166.104 126.48ZM167.307 95.819L178.079 94.958C179.698 94.8288 181.232 94.1771 182.449 93.101C183.667 92.0248 184.502 90.5825 184.829 88.991C186.676 79.997 190.219 71.492 195.359 63.713C196.259 62.3503 196.69 60.7309 196.586 59.1008C196.482 57.4708 195.849 55.9193 194.783 54.682L187.745 46.516L198.853 35.409L207.113 42.447C208.349 43.5004 209.894 44.1239 211.515 44.2238C213.136 44.3237 214.746 43.8946 216.103 43.001C223.895 37.868 232.403 34.335 241.392 32.501C242.992 32.1744 244.442 31.3342 245.522 30.1081C246.601 28.882 247.251 27.337 247.372 25.708L248.166 15H263.875L264.736 25.773C264.865 27.3924 265.517 28.9261 266.593 30.1432C267.669 31.3603 269.111 32.1951 270.703 32.522C279.698 34.37 288.203 37.912 295.98 43.051C297.342 43.9515 298.962 44.3825 300.592 44.2785C302.222 44.1745 303.773 43.5413 305.011 42.475L313.176 35.437L324.284 46.544L317.246 54.804C316.192 56.0404 315.569 57.5854 315.469 59.2066C315.369 60.8278 315.798 62.4376 316.692 63.794C321.824 71.585 325.357 80.093 327.192 89.082C327.518 90.6825 328.358 92.1327 329.584 93.2121C330.811 94.2914 332.355 94.941 333.985 95.062L344.693 95.856V111.565L333.922 112.425C332.302 112.554 330.768 113.206 329.551 114.282C328.333 115.358 327.498 116.8 327.172 118.392C325.325 127.385 321.782 135.89 316.642 143.67C315.741 145.033 315.31 146.652 315.414 148.282C315.518 149.912 316.151 151.463 317.218 152.7L324.256 160.866L313.148 171.973L304.888 164.935C303.651 163.881 302.106 163.258 300.484 163.158C298.863 163.058 297.253 163.487 295.897 164.381C288.107 169.514 279.599 173.047 270.609 174.881C269.008 175.208 267.558 176.048 266.478 177.274C265.399 178.501 264.749 180.046 264.629 181.675L263.835 192.383H248.126L247.265 181.61C247.135 179.99 246.483 178.457 245.407 177.239C244.331 176.022 242.889 175.187 241.298 174.86C232.304 173.013 223.799 169.47 216.021 164.33C214.658 163.429 213.038 162.998 211.408 163.102C209.778 163.206 208.227 163.84 206.99 164.906L198.825 171.944L187.718 160.836L194.756 152.576C195.809 151.34 196.433 149.794 196.533 148.173C196.633 146.552 196.203 144.941 195.31 143.585C190.177 135.796 186.644 127.288 184.81 118.298C184.483 116.697 183.643 115.247 182.417 114.167C181.19 113.088 179.645 112.438 178.016 112.318L167.308 111.524L167.307 95.819ZM256 224.452C254.01 224.452 252.103 225.242 250.696 226.649C249.29 228.055 248.5 229.963 248.5 231.952V265.565L237.952 251.5C237.361 250.712 236.62 250.048 235.773 249.546C234.925 249.045 233.987 248.715 233.012 248.575C232.037 248.436 231.044 248.49 230.09 248.735C229.136 248.979 228.239 249.409 227.452 250C226.664 250.591 226 251.331 225.498 252.179C224.996 253.026 224.666 253.964 224.527 254.939C224.388 255.914 224.442 256.907 224.686 257.861C224.931 258.815 225.361 259.712 225.952 260.5L250 292.564C250.698 293.495 251.604 294.252 252.645 294.772C253.687 295.293 254.835 295.564 256 295.564C257.164 295.564 258.312 295.293 259.354 294.772C260.395 294.252 261.301 293.495 262 292.564L286.048 260.5C287.241 258.909 287.753 256.908 287.472 254.939C287.191 252.97 286.139 251.193 284.548 250C282.956 248.807 280.956 248.294 278.987 248.575C277.018 248.857 275.241 249.909 274.048 251.5L263.5 265.564V231.951C263.499 229.962 262.709 228.055 261.302 226.648C259.896 225.242 257.988 224.452 256 224.452Z" fill="black"/>
<path d="M256 151.274C282.236 151.274 303.581 129.929 303.581 103.693C303.581 97.8773 302.454 92.0513 300.232 86.3813C299.506 84.5293 298.074 83.0414 296.252 82.2451C294.429 81.4487 292.364 81.409 290.512 82.1348C288.66 82.8605 287.173 84.2923 286.376 86.1151C285.58 87.9378 285.54 90.0023 286.266 91.8543C287.802 95.7743 288.581 99.7583 288.581 103.694C288.581 121.659 273.965 136.275 256 136.275C238.035 136.275 223.419 121.659 223.419 103.694C223.419 85.7293 238.035 71.1133 256 71.1133C259.937 71.1133 263.92 71.8923 267.84 73.4283C269.685 74.119 271.727 74.0564 273.526 73.2539C275.325 72.4514 276.736 70.9735 277.455 69.1394C278.173 67.3053 278.141 65.2621 277.366 63.4513C276.591 61.6405 275.134 60.2073 273.311 59.4613C267.64 57.2393 261.815 56.1133 255.999 56.1133C229.763 56.1133 208.418 77.4583 208.418 103.694C208.419 129.93 229.764 151.274 256 151.274Z" fill="black"/>
</svg>
