<svg width="20" height="20" viewBox="0 0 20 20" fill="none" xmlns="http://www.w3.org/2000/svg">
<path d="M19.7167 11.8248C19.4795 11.6387 19.1529 11.6153 18.8914 11.7656C17.6515 12.4783 16.3409 12.8397 14.9961 12.8397C10.675 12.8397 7.15973 9.32423 7.15973 5.0031C7.15973 3.65236 7.52165 2.34354 8.23554 1.11315C8.38716 0.851939 8.36467 0.524735 8.17873 0.286607C7.99288 0.0484787 7.68087 -0.0528293 7.39065 0.0310186C5.30323 0.632751 3.42445 1.90941 2.10044 3.62573C0.72632 5.40715 0 7.54064 0 9.79565C0 15.4218 4.57711 19.9993 10.2032 19.9993C12.4582 19.9993 14.5922 19.2732 16.3745 17.8995C18.092 16.5758 19.3693 14.6981 19.971 12.6122C20.0546 12.3223 19.954 12.0109 19.7167 11.8248ZM10.2032 18.5195C5.393 18.5195 1.47967 14.606 1.47967 9.79565C1.47967 6.55044 3.33665 3.59722 6.15898 2.11301C5.84055 3.04866 5.68006 4.01528 5.68006 5.0031C5.68006 10.1401 9.85923 14.3194 14.9961 14.3194C15.9825 14.3194 16.9508 14.1582 17.891 13.8387C16.407 16.6616 13.4512 18.5195 10.2032 18.5195Z" fill="black"/>
</svg>
