<svg width="577" height="594" viewBox="0 0 577 594" fill="none" xmlns="http://www.w3.org/2000/svg">
<g clip-path="url(#clip0_479_1225)">
<path d="M430.94 432.302C434.717 400.834 433.585 396.22 457.024 401.317L462.974 401.84C480.997 402.66 504.573 398.941 518.424 392.506C548.24 378.672 565.92 355.573 536.52 361.642C469.457 375.477 464.846 352.769 464.846 352.769C535.661 247.698 565.264 114.321 539.712 81.6729C470.018 -7.37909 349.381 34.7316 347.362 35.8249L346.72 35.9436C333.469 33.1942 318.64 31.5516 301.981 31.2822C271.633 30.7836 248.605 39.2382 231.137 52.4876C231.137 52.4876 15.9264 -36.1764 25.9384 163.992C28.0677 206.573 86.9744 486.198 157.232 401.738C182.91 370.854 207.726 344.741 207.726 344.741C220.049 352.928 234.802 357.104 250.276 355.604L251.472 354.584C251.097 358.418 251.262 362.169 251.95 366.609C233.854 386.832 239.172 390.382 202.986 397.83C166.377 405.376 187.885 418.809 201.924 422.32C218.948 426.577 258.33 432.608 284.948 395.354L283.888 399.605C290.988 405.285 290.508 440.43 291.514 465.541C292.522 490.653 294.204 514.086 299.322 527.902C304.441 541.716 310.481 577.302 358.037 567.11C397.782 558.593 428.17 546.336 430.94 432.302Z" fill="black" stroke="black" stroke-width="49.8604"/>
<path d="M536.526 361.64C469.457 375.474 464.846 352.766 464.846 352.766C535.661 247.689 565.263 114.309 539.717 81.6649C470.023 -7.3818 349.381 34.7315 347.367 35.8249L346.719 35.9409C333.469 33.1902 318.639 31.5515 301.973 31.2795C271.625 30.7822 248.605 39.2355 231.137 52.4822C231.137 52.4822 15.9221 -36.1778 25.9314 163.989C28.0607 206.573 86.9661 486.198 157.226 401.738C182.906 370.854 207.718 344.741 207.718 344.741C220.042 352.928 234.795 357.104 250.262 355.604L251.463 354.584C251.09 358.418 251.261 362.169 251.945 366.609C233.845 386.832 239.163 390.382 202.981 397.83C166.369 405.376 187.877 418.809 201.919 422.32C218.943 426.577 258.329 432.608 284.941 395.354L283.879 399.605C290.971 405.285 295.951 436.553 295.117 464.897C294.282 493.242 293.725 512.702 299.313 527.902C304.901 543.102 310.47 577.302 358.035 567.11C397.781 558.593 418.377 536.521 421.242 499.704C423.275 473.529 427.877 477.398 428.167 453.997L431.858 442.918C436.114 407.437 432.534 395.99 457.021 401.314L462.971 401.837C480.994 402.657 504.582 398.938 518.426 392.504C548.237 378.669 565.917 355.57 536.523 361.64H536.526Z" fill="#336791"/>
<path d="M287.821 381.979C285.975 448 288.285 514.481 294.745 530.639C301.209 546.796 315.043 578.222 362.612 568.032C402.353 559.512 416.813 543.024 423.088 506.63C427.709 479.854 436.619 405.492 437.761 390.256" stroke="white" stroke-width="16.6201" stroke-linecap="round" stroke-linejoin="round"/>
<path d="M230.805 51.0081C230.805 51.0081 15.4438 -37.0133 25.4558 163.153C27.5851 205.737 86.4944 485.372 156.753 400.908C182.428 370.02 205.648 345.795 205.648 345.795" stroke="white" stroke-width="16.6201" stroke-linecap="round" stroke-linejoin="round"/>
<path d="M347.132 34.9425C339.677 37.2798 466.929 -11.5762 539.248 80.8318C564.793 113.477 535.191 246.857 464.377 351.937" stroke="white" stroke-width="16.6201" stroke-linecap="round" stroke-linejoin="round"/>
<path d="M464.376 351.938C464.376 351.938 468.991 374.653 536.061 360.809C565.448 354.739 547.763 377.841 517.959 391.682C493.499 403.034 438.66 405.943 437.764 390.257C435.459 349.783 466.625 362.079 464.376 351.938ZM464.376 351.938C462.343 342.805 448.405 333.841 439.185 311.487C431.136 291.977 328.791 142.355 467.568 164.577C472.652 163.525 431.373 32.574 301.497 30.4447C171.651 28.3153 175.911 190.127 175.911 190.127" stroke="white" stroke-width="16.6201" stroke-linecap="round" stroke-linejoin="bevel"/>
<path d="M251.472 365.779C233.369 386 238.693 389.551 202.508 397.002C165.896 404.548 187.407 417.979 201.445 421.488C218.469 425.748 257.855 431.779 284.467 394.516C292.571 383.171 284.419 365.068 273.287 360.454C267.908 358.226 260.716 355.434 251.472 365.779Z" stroke="white" stroke-width="16.6201" stroke-linecap="round" stroke-linejoin="round"/>
<path d="M250.286 365.426C248.462 353.537 254.193 339.389 260.334 322.837C269.564 298.002 290.858 273.163 273.823 194.385C261.126 135.679 175.962 182.167 175.909 190.127C175.857 198.085 179.761 230.474 174.486 268.191C167.604 317.409 205.803 359.034 249.791 354.775" stroke="white" stroke-width="16.6201" stroke-linecap="round" stroke-linejoin="round"/>
<path d="M230.022 188.932C229.638 191.651 235 198.906 241.99 199.875C248.969 200.848 254.942 195.179 255.321 192.463C255.7 189.744 250.345 186.75 243.352 185.776C236.369 184.802 230.393 186.22 230.024 188.932H230.022Z" fill="white" stroke="white" stroke-width="5.54"/>
<path d="M442.588 183.391C442.966 186.11 437.612 193.364 430.62 194.334C423.636 195.307 417.662 189.638 417.28 186.922C416.91 184.203 422.266 181.208 429.252 180.235C436.237 179.262 442.209 180.679 442.588 183.392V183.391Z" fill="white" stroke="white" stroke-width="2.77"/>
<path d="M467.567 164.576C468.718 185.902 462.974 200.427 462.25 223.128C461.178 256.125 477.982 293.894 452.662 331.708" stroke="white" stroke-width="16.6201" stroke-linecap="round" stroke-linejoin="round"/>
</g>
<defs>
<clipPath id="clip0_479_1225">
<rect width="576.095" height="593.844" fill="white"/>
</clipPath>
</defs>
</svg>
