<svg width="512" height="512" viewBox="0 0 512 512" fill="none" xmlns="http://www.w3.org/2000/svg">
<g clip-path="url(#clip0_480_1034)">
<path d="M465.655 26.6981C458.453 43.8957 449.317 60.2268 438.314 75.2247C390.168 27.098 324.818 0.0351562 256.733 0.0351562C115.897 0.0351562 0 116.019 0 256.999C0 327.323 28.8075 394.647 79.7541 443.173L89.2232 451.572C135.502 490.567 194.117 512.03 254.6 512.03C388.501 512.03 501.064 407.112 510.6 273.397C517.601 207.939 498.396 125.151 465.655 26.6981ZM116.23 444.64C112.096 449.772 105.761 452.772 99.1591 452.772C87.0893 452.772 77.2201 442.84 77.2201 430.775C77.2201 418.71 87.156 408.778 99.1591 408.778C104.16 408.778 109.095 410.511 112.963 413.711C122.365 421.31 123.832 435.241 116.23 444.64ZM464.588 367.717C401.238 452.172 265.936 423.709 179.18 427.775C179.18 427.775 163.776 428.709 148.305 431.242C148.305 431.242 154.107 428.775 161.642 425.909C222.525 404.712 251.332 400.579 288.342 381.582C358.027 346.12 426.911 268.531 441.248 187.809C414.708 265.465 334.287 332.189 261.001 359.318C210.788 377.849 120.098 395.847 120.098 395.847L116.43 393.914C54.6809 363.851 52.8137 230.07 165.043 186.876C214.189 167.945 261.201 178.344 314.282 165.679C370.963 152.214 436.514 109.687 463.187 54.2276C493.062 142.949 529.004 281.862 464.588 367.717Z" fill="#77BC1F"/>
</g>
<defs>
<clipPath id="clip0_480_1034">
<rect width="512" height="512" fill="white"/>
</clipPath>
</defs>
</svg>
