<svg width="512" height="512" viewBox="0 0 512 512" fill="none" xmlns="http://www.w3.org/2000/svg">
<path d="M270.955 212.146L74.9535 65.1458C70.8106 61.9273 65.7441 60.1236 60.4994 60C46.9674 60 36 70.9696 36 84.4994C36.0663 88.2822 37.0077 91.9983 38.7505 95.3564C40.4933 98.7145 42.9901 101.623 46.0453 103.855L215.587 231.5L45.801 358.901C42.7581 361.183 40.2883 364.142 38.5872 367.544C36.886 370.946 36.0002 374.697 36 378.501C36 392.033 46.9696 403 60.4994 403C65.7443 402.878 70.8113 401.074 74.9535 397.854L270.955 250.854C274.01 248.622 276.507 245.713 278.249 242.355C279.992 238.997 280.934 235.281 281 231.498C280.934 227.716 279.992 224 278.249 220.643C276.507 217.285 274.01 214.377 270.955 212.146Z" fill="black"/>
<path d="M452.501 403H305.499C291.967 403 281 413.97 281 427.5C281 441.03 291.97 452 305.499 452H452.501C466.033 452 477 441.03 477 427.5C477 413.97 466.03 403 452.501 403Z" fill="black"/>
</svg>
