<svg width="21" height="21" viewBox="0 0 21 21" fill="none" xmlns="http://www.w3.org/2000/svg">
<path fill-rule="evenodd" clip-rule="evenodd" d="M5.25465 0.497814C5.49469 0.257851 5.8202 0.123047 6.15961 0.123047C6.49902 0.123047 6.82453 0.257851 7.06457 0.497814L16.0246 9.45781C16.2645 9.69785 16.3993 10.0234 16.3993 10.3628C16.3993 10.7022 16.2645 11.0277 16.0246 11.2677L7.06457 20.2277C6.82316 20.4609 6.49983 20.5899 6.16422 20.587C5.8286 20.5841 5.50756 20.4495 5.27024 20.2121C5.03292 19.9748 4.8983 19.6538 4.89539 19.3182C4.89247 18.9826 5.02149 18.6592 5.25465 18.4178L13.3097 10.3628L5.25465 2.30901C5.01469 2.06898 4.87988 1.74346 4.87988 1.40405C4.87988 1.06464 5.01469 0.737849 5.25465 0.497814Z" fill="#F08200"/>
</svg>
