<svg width="1025" height="1025" viewBox="0 0 1025 1025" fill="none" xmlns="http://www.w3.org/2000/svg">
<path fill-rule="evenodd" clip-rule="evenodd" d="M23.0757 458.163C-6.96075 488.199 -6.96081 536.898 23.0757 566.934L166.869 710.728L200.691 652.147C200.933 651.728 201.197 651.328 201.48 650.95C202.934 645.948 207.551 642.293 213.021 642.293H405.304C411.941 642.293 417.322 647.673 417.322 654.311C417.322 660.948 411.941 666.328 405.304 666.328H220.257L184.464 728.323L214.462 758.321L399.182 691.088C405.419 688.818 412.316 692.034 414.586 698.271C416.856 704.508 413.64 711.404 407.403 713.674L233.215 777.073L458.163 1002.02C488.199 1032.06 536.898 1032.06 566.934 1002.02L712.684 856.271L754.042 701.923L520.806 786.814C514.569 789.084 507.672 785.868 505.402 779.631C503.132 773.394 506.348 766.498 512.585 764.228L761.636 673.581L856.286 320.342C856.815 318.369 857.804 316.644 859.108 315.25L648.269 104.411L221.494 259.744L211.871 269.367L267.78 422.978L333.072 399.213L413.032 260.72C416.35 254.972 423.7 253.002 429.448 256.321C435.196 259.64 437.165 266.989 433.847 272.737L368.21 386.424L437.537 361.191C443.773 358.921 450.67 362.137 452.94 368.374C455.21 374.611 451.994 381.507 445.757 383.777L349.513 418.807L289.635 522.52C286.316 528.268 278.966 530.238 273.218 526.919C267.47 523.601 265.501 516.251 268.819 510.503L314.376 431.596L265.07 449.542C260.906 451.058 256.448 450.128 253.269 447.486C251.419 446.129 249.937 444.229 249.094 441.912L193.118 288.12L23.0757 458.163ZM261.709 219.529L629.517 85.6581L566.934 23.0757C536.898 -6.96075 488.199 -6.96081 458.163 23.0757L261.709 219.529ZM877.583 333.725L789.208 663.546L966.287 599.094L901.622 357.764L877.583 333.725ZM935.614 391.755L986.667 582.289L1002.02 566.934C1032.06 536.898 1032.06 488.199 1002.02 458.163L935.614 391.755ZM931.692 637.264L781.614 691.888L746.676 822.28L931.692 637.264ZM437.595 525.215C431.358 527.485 428.142 534.381 430.412 540.618C432.682 546.855 439.578 550.071 445.815 547.8L716.846 449.153C723.083 446.883 726.298 439.987 724.028 433.75C721.758 427.513 714.862 424.298 708.625 426.568L603.704 464.756C603.734 462.661 603.217 460.532 602.093 458.586L457.881 208.803C454.562 203.055 447.213 201.086 441.465 204.405C435.717 207.723 433.747 215.073 437.066 220.821L581.278 470.604C581.662 471.268 582.099 471.882 582.582 472.444L437.595 525.215ZM340.925 616.258C337.607 622.006 339.576 629.356 345.324 632.675C351.072 635.993 358.422 634.024 361.741 628.276L505.953 378.493C509.272 372.745 507.302 365.395 501.554 362.077C495.806 358.758 488.456 360.727 485.138 366.475L340.925 616.258Z" fill="url(#paint0_linear_32_49)"/>
<defs>
<linearGradient id="paint0_linear_32_49" x1="512.851" y1="5.22364" x2="512.851" y2="1056.05" gradientUnits="userSpaceOnUse">
<stop stop-color="#00DADA"/>
<stop offset="1" stop-color="#5200FF" stop-opacity="0"/>
</linearGradient>
</defs>
</svg>
