<svg width="128" height="128" viewBox="0 0 128 128" fill="none" xmlns="http://www.w3.org/2000/svg">
<path fill-rule="evenodd" clip-rule="evenodd" d="M2.81592 57.2018C-0.938637 60.9563 -0.938643 67.0437 2.81592 70.7982L20.7901 88.7724L25.0178 81.4499C25.0481 81.3974 25.081 81.3475 25.1164 81.3002C25.2982 80.675 25.8753 80.2181 26.5591 80.2181H50.5945C51.4241 80.2181 52.0967 80.8906 52.0967 81.7203C52.0967 82.5499 51.4241 83.2225 50.5945 83.2225H27.4636L22.9895 90.9718L26.7393 94.7216L49.8293 86.3175C50.6089 86.0337 51.4709 86.4357 51.7547 87.2153C52.0384 87.9949 51.6365 88.857 50.8568 89.1407L29.0833 97.0656L57.2018 125.184C60.9563 128.939 67.0437 128.939 70.7982 125.184L89.017 106.965L94.1867 87.6718L65.0322 98.2832C64.2525 98.567 63.3905 98.165 63.1068 97.3854C62.823 96.6057 63.225 95.7437 64.0046 95.46L95.136 84.1291L106.967 39.9742C107.033 39.7276 107.157 39.5119 107.32 39.3376L80.9651 12.9828L27.6182 32.3995L26.4153 33.6024L33.404 52.8036L41.5655 49.8331L51.5604 32.5214C51.9752 31.8029 52.894 31.5567 53.6125 31.9716C54.331 32.3864 54.5771 33.3051 54.1623 34.0236L45.9577 48.2345L54.6235 45.0804C55.4032 44.7966 56.2652 45.1986 56.5489 45.9782C56.8327 46.7578 56.4307 47.6198 55.6511 47.9036L43.6206 52.2823L36.1358 65.2465C35.721 65.965 34.8022 66.2112 34.0837 65.7963C33.3652 65.3815 33.1191 64.4628 33.5339 63.7443L39.2285 53.8809L33.0652 56.1242C32.5447 56.3136 31.9875 56.1974 31.5901 55.8672C31.3589 55.6976 31.1736 55.4601 31.0682 55.1704L24.0713 35.9464L2.81592 57.2018ZM32.6451 27.3726L78.621 10.6387L70.7982 2.81592C67.0437 -0.938636 60.9563 -0.938643 57.2018 2.81592L32.6451 27.3726ZM109.629 41.6471L98.5825 82.8746L120.717 74.8182L112.634 44.6519L109.629 41.6471ZM116.883 48.9008L123.265 72.7175L125.184 70.7982C128.939 67.0437 128.939 60.9563 125.184 57.2018L116.883 48.9008ZM116.393 79.5894L97.6332 86.4174L93.2659 102.716L116.393 79.5894ZM54.6308 65.5833C53.8512 65.867 53.4492 66.7291 53.733 67.5087C54.0167 68.2883 54.8788 68.6903 55.6584 68.4065L89.5372 56.0756C90.3168 55.7919 90.7188 54.9298 90.435 54.1502C90.1512 53.3706 89.2892 52.9686 88.5096 53.2524L75.3945 58.0259C75.3982 57.7641 75.3335 57.498 75.1931 57.2547L57.1666 26.0319C56.7518 25.3134 55.833 25.0672 55.1145 25.482C54.396 25.8968 54.1499 26.8156 54.5647 27.5341L72.5912 58.7569C72.6392 58.84 72.6939 58.9168 72.7542 58.9869L54.6308 65.5833ZM42.5471 76.9637C42.1323 77.6822 42.3785 78.601 43.097 79.0158C43.8155 79.4306 44.7342 79.1845 45.1491 78.466L63.1756 47.2431C63.5904 46.5246 63.3442 45.6058 62.6257 45.191C61.9072 44.7762 60.9885 45.0224 60.5737 45.7409L42.5471 76.9637Z" fill="url(#paint0_linear_340_998)"/>
<defs>
<linearGradient id="paint0_linear_340_998" x1="64.0378" y1="0.584412" x2="64.0378" y2="131.938" gradientUnits="userSpaceOnUse">
<stop stop-color="#00DADA"/>
<stop offset="1" stop-color="#5200FF" stop-opacity="0"/>
</linearGradient>
</defs>
</svg>
