<svg width="129" height="98" viewBox="0 0 129 98" fill="none" xmlns="http://www.w3.org/2000/svg">
<path d="M47.7383 61.3786L20.312 33.9544C19.5836 33.2263 18.5959 32.8172 17.566 32.8172C16.536 32.8172 15.5483 33.2263 14.8199 33.9544L1.23975 47.5345C0.511594 48.2629 0.102539 49.2506 0.102539 50.2805C0.102539 51.3104 0.511594 52.2982 1.23975 53.0266L28.6661 80.4528L44.9903 96.7769C45.7187 97.505 46.7064 97.9141 47.7363 97.9141C48.7662 97.9141 49.754 97.505 50.4824 96.7769L66.8066 80.4528L126.965 20.2943C127.693 19.5659 128.103 18.5782 128.103 17.5483C128.103 16.5184 127.693 15.5306 126.965 14.8023L113.385 1.22217C112.657 0.494015 111.669 0.0849609 110.639 0.0849609C109.609 0.0849609 108.621 0.494015 107.893 1.22217L47.7383 61.3786Z" fill="#097500"/>
</svg>
