<svg width="16" height="16" viewBox="0 0 16 16" fill="none" xmlns="http://www.w3.org/2000/svg">
<g clip-path="url(#clip0_271_1042)">
<path d="M15.9011 7.76073L11.8176 3.67727C11.6906 3.55029 11.4659 3.55029 11.339 3.67727L10.4537 4.56256C10.3214 4.69479 10.3214 4.90913 10.4537 5.04136L13.4126 7.99996L10.4538 10.9591C10.3216 11.0913 10.3216 11.3056 10.4538 11.4379L11.3391 12.3232C11.4026 12.3867 11.4888 12.4225 11.5785 12.4225C11.6681 12.4225 11.7544 12.3867 11.8179 12.3232L15.9011 8.23987C16.0333 8.10747 16.0333 7.89296 15.9011 7.76073Z" fill="white"/>
<path d="M5.54639 10.9588L2.58795 8.00003L5.5469 5.04143C5.61039 4.97794 5.64611 4.89193 5.64611 4.80203C5.64611 4.7123 5.61056 4.62612 5.5469 4.56263L4.6616 3.67734C4.59811 3.61385 4.51194 3.57812 4.4222 3.57812C4.33247 3.57812 4.2463 3.61385 4.18281 3.67734L0.0991704 7.76047C-0.0330568 7.89269 -0.0330568 8.10703 0.0991704 8.23943L4.18264 12.3227C4.24613 12.3862 4.3323 12.4221 4.42203 12.4221C4.51177 12.4221 4.59794 12.3862 4.66143 12.3227L5.54673 11.4374C5.67896 11.3054 5.67896 11.091 5.54639 10.9588Z" fill="white"/>
<path d="M10.322 2.30275C10.279 2.22385 10.2066 2.16527 10.1206 2.13988L9.40287 1.92808C9.22374 1.87492 9.03514 1.97768 8.98231 2.15698L5.65056 13.44C5.62516 13.5261 5.63498 13.6188 5.67782 13.6975C5.72065 13.7765 5.79328 13.835 5.87929 13.8605L6.59697 14.0723C6.62897 14.0818 6.66131 14.0864 6.69297 14.0864C6.83908 14.0864 6.97402 13.9909 7.01753 13.8434L10.3493 2.56026C10.3747 2.47409 10.365 2.38148 10.322 2.30275Z" fill="white"/>
</g>
<defs>
<clipPath id="clip0_271_1042">
<rect width="16" height="16" fill="white"/>
</clipPath>
</defs>
</svg>
