<svg width="152" height="152" viewBox="0 0 152 152" fill="none" xmlns="http://www.w3.org/2000/svg">
<path d="M24.1338 139.198C20.9957 139.381 17.9094 138.337 15.5257 136.288C10.8248 131.559 10.8248 123.922 15.5257 119.193L118.46 16.258C123.35 11.6828 131.022 11.9371 135.597 16.8265C139.734 21.2479 139.975 28.0438 136.162 32.7471L32.6205 136.288C30.2678 138.308 27.2307 139.349 24.1338 139.198Z" fill="#0068D9"/>
<path d="M126.947 139.198C123.767 139.185 120.719 137.922 118.46 135.682L15.5252 32.747C11.17 27.6612 11.7621 20.0073 16.848 15.6517C21.3872 11.7645 28.0816 11.7645 32.6204 15.6517L136.162 118.587C141.05 123.163 141.303 130.836 136.726 135.724C136.544 135.918 136.356 136.106 136.162 136.289C134.907 137.379 133.442 138.2 131.857 138.701C130.272 139.202 128.601 139.371 126.947 139.198Z" fill="#0068D9"/>
</svg>
