<svg width="32" height="32" viewBox="0 0 32 32" fill="none" xmlns="http://www.w3.org/2000/svg">
<g clip-path="url(#clip0_480_1076)">
<path d="M17.9996 31.3606H13.9996C13.8716 31.3606 13.7516 31.2916 13.6876 31.1796L11.6876 27.7156C11.6236 27.6046 11.6236 27.4676 11.6876 27.3566L13.6876 23.8926C13.7516 23.7816 13.8706 23.7116 13.9996 23.7116H17.7916L20.6876 18.6956C20.7876 18.5216 21.0076 18.4646 21.1786 18.5636C21.3516 18.6636 21.4096 18.8826 21.3106 19.0546L18.4146 24.0716L20.3106 27.3556C20.3746 27.4666 20.3746 27.6036 20.3106 27.7146L18.3106 31.1786C18.2466 31.2916 18.1286 31.3606 17.9996 31.3606ZM14.2076 30.6406H17.7916L19.5836 27.5366L17.7916 24.4326H14.2076L12.4156 27.5366L14.2076 30.6406ZM27.9996 25.5936H23.9996C23.8706 25.5936 23.7526 25.5246 23.6876 25.4126L21.6876 21.9476C21.6236 21.8366 21.6236 21.6996 21.6876 21.5886L23.5836 18.3046L20.6876 13.2886C20.5876 13.1166 20.6466 12.8956 20.8196 12.7966C20.9906 12.6966 21.2116 12.7556 21.3106 12.9276L24.2066 17.9436H27.9996C28.1286 17.9436 28.2466 18.0126 28.3116 18.1246L30.3116 21.5886C30.3756 21.6996 30.3756 21.8366 30.3116 21.9476L28.3116 25.4126C28.2466 25.5236 28.1286 25.5936 27.9996 25.5936ZM24.2076 24.8726H27.7916L29.5836 21.7686L27.7916 18.6646H24.2076L22.4156 21.7686L24.2076 24.8726ZM7.99965 25.5936H3.99965C3.87165 25.5936 3.75165 25.5246 3.68765 25.4126L1.68765 21.9476C1.62365 21.8366 1.62365 21.6996 1.68765 21.5886L3.68765 18.1246C3.75165 18.0136 3.87165 17.9436 3.99965 17.9436H7.99965C8.12765 17.9436 8.24765 18.0126 8.31165 18.1246L10.2076 21.4076H15.9996C16.1986 21.4076 16.3596 21.5686 16.3596 21.7676C16.3596 21.9666 16.1986 22.1276 15.9996 22.1276H10.2076L8.31165 25.4116C8.24765 25.5236 8.12765 25.5936 7.99965 25.5936ZM4.20765 24.8726H7.79165L9.58365 21.7686L7.79165 18.6646H4.20765L2.41565 21.7686L4.20765 24.8726ZM10.9996 19.2536C10.8746 19.2536 10.7536 19.1896 10.6876 19.0726L7.79165 14.0566H3.99965C3.87165 14.0566 3.75165 13.9886 3.68765 13.8766L1.68765 10.4126C1.62365 10.3016 1.62365 10.1636 1.68765 10.0526L3.68765 6.58862C3.75165 6.47762 3.87165 6.40863 3.99965 6.40863H7.99965C8.12765 6.40863 8.24765 6.47662 8.31165 6.58862L10.3116 10.0526C10.3756 10.1636 10.3756 10.3016 10.3116 10.4126L8.41565 13.6966L11.3116 18.7136C11.4106 18.8856 11.3516 19.1056 11.1796 19.2046C11.1236 19.2376 11.0616 19.2536 10.9996 19.2536ZM4.20765 13.3366H7.79165L9.58365 10.2326L7.79165 7.12862H4.20765L2.41565 10.2326L4.20765 13.3366ZM27.9996 14.0566H23.9996C23.8706 14.0566 23.7526 13.9886 23.6876 13.8766L21.7916 10.5916H15.9996C15.8006 10.5916 15.6396 10.4306 15.6396 10.2316C15.6396 10.0326 15.8006 9.87162 15.9996 9.87162H21.7916L23.6876 6.58763C23.7516 6.47663 23.8706 6.40763 23.9996 6.40763H27.9996C28.1286 6.40763 28.2466 6.47563 28.3116 6.58763L30.3116 10.0516C30.3756 10.1626 30.3756 10.3006 30.3116 10.4116L28.3116 13.8756C28.2466 13.9886 28.1286 14.0566 27.9996 14.0566ZM24.2076 13.3366H27.7916L29.5836 10.2326L27.7916 7.12862H24.2076L22.4156 10.2326L24.2076 13.3366ZM10.9996 13.4846C10.9386 13.4846 10.8766 13.4696 10.8196 13.4366C10.6476 13.3366 10.5886 13.1166 10.6876 12.9446L13.5836 7.92863L11.6876 4.64463C11.6236 4.53263 11.6236 4.39563 11.6876 4.28463L13.6876 0.820625C13.7516 0.708625 13.8716 0.640625 13.9996 0.640625H17.9996C18.1286 0.640625 18.2466 0.708625 18.3116 0.820625L20.3116 4.28463C20.3756 4.39563 20.3756 4.53363 20.3116 4.64463L18.3116 8.10862C18.2466 8.22062 18.1286 8.28863 17.9996 8.28863H14.2076L11.3116 13.3056C11.2446 13.4206 11.1236 13.4846 10.9996 13.4846ZM14.2076 7.56862H17.7916L19.5836 4.46463L17.7916 1.36063H14.2076L12.4156 4.46463L14.2076 7.56862Z" fill="black"/>
</g>
<defs>
<clipPath id="clip0_480_1076">
<rect width="32" height="32" fill="white"/>
</clipPath>
</defs>
</svg>
