<svg width="405" height="405" viewBox="0 0 405 405" fill="none" xmlns="http://www.w3.org/2000/svg">
<g clip-path="url(#clip0_480_1072)">
<path d="M229 173H271ZM179 173H221ZM130 173H172ZM81 173H122ZM31 173H73ZM81 127H122ZM130 127H172ZM179 127H221ZM179 81H221Z" fill="black"/>
<path d="M229 173H271M179 173H221M130 173H172M81 173H122M31 173H73M81 127H122M130 127H172M179 127H221M179 81H221" stroke="#066DA5" stroke-width="38"/>
<path d="M405 175C405 175 387 158 350 164C346 135 315 118 315 118C315 118 286 153 307 192C301 195 291 199 276 199H0.999553C-4.00045 218 -4.00044 344 134 344C233 344 307 298 342 214C394 218 405 175 405 175Z" fill="#066DA5"/>
</g>
<defs>
<clipPath id="clip0_480_1072">
<rect width="405" height="405" fill="white"/>
</clipPath>
</defs>
</svg>
