<svg width="128" height="128" viewBox="0 0 128 128" fill="none" xmlns="http://www.w3.org/2000/svg">
<g clip-path="url(#clip0_572_1052)">
<path d="M9.61623 48.7053C13.4102 35.1985 22.0459 23.6438 33.9356 16.1711C44.9463 9.2512 57.5791 6.38303 70.4698 7.87913C79.8145 8.96409 88.7569 12.3879 96.3946 17.717L90.4785 17.9211L90.7364 25.4162L110.218 24.7453L109.513 5.5051L102.018 5.78049L102.272 12.7141C93.2852 6.02561 82.5655 1.73362 71.334 0.429909C64.252 -0.392356 57.1455 -0.033958 50.2129 1.49534C43.0381 3.07639 36.2188 5.87815 29.9444 9.82151C16.4776 18.2873 6.69338 31.3762 2.39651 46.678C-1.87009 61.8703 -0.408181 78.0061 6.51174 92.1125L13.2451 88.8098C7.13772 76.3615 5.84963 62.1194 9.61623 48.7053Z" fill="#FD982C"/>
<path d="M119.699 32.5107L113.173 36.2061C120.338 48.8594 122.329 63.6152 118.781 77.7549C115.222 91.9385 106.44 104.037 94.0547 111.822C82.6191 119.01 68.9785 121.858 55.6475 119.844C45.2744 118.276 35.5859 113.861 27.6602 107.192L34.6504 106.951L34.3916 99.4561L14.9111 100.127L15.6162 119.367L23.1104 119.092L22.8857 112.976C31.8535 120.504 42.8057 125.487 54.5264 127.259C57.6924 127.737 60.8721 127.974 64.043 127.974C76.001 127.974 87.8037 124.608 98.0449 118.171C112.075 109.353 122.022 95.6475 126.055 79.5801C130.074 63.5645 127.817 46.8477 119.699 32.5107V32.5107Z" fill="#FD982C"/>
<path d="M96.3936 17.7197L90.4775 17.9229L90.7354 25.418L110.217 24.748L109.512 5.50781L102.017 5.78223L102.271 12.7168C93.2842 6.02734 82.5645 1.73535 71.333 0.431641C68.8867 0.147461 66.4375 0.0078125 63.9941 0.00585938V7.49805C66.1406 7.50391 68.3008 7.62988 70.4688 7.88086C79.8135 8.96582 88.7559 12.3896 96.3936 17.7197V17.7197Z" fill="#FA502E"/>
<path d="M119.698 32.5107L113.172 36.2061C120.337 48.8594 122.328 63.6152 118.78 77.7549C115.221 91.9385 106.439 104.037 94.0537 111.822C85 117.513 74.5645 120.48 63.9941 120.472V127.974H64.041C76 127.974 87.8027 124.608 98.0439 118.172C112.074 109.354 122.021 95.6475 126.054 79.5811C130.073 63.5645 127.816 46.8477 119.698 32.5107V32.5107Z" fill="#FA502E"/>
</g>
<defs>
<clipPath id="clip0_572_1052">
<rect width="128" height="128" fill="white"/>
</clipPath>
</defs>
</svg>
