<svg width="201" height="201" viewBox="0 0 201 201" fill="none" xmlns="http://www.w3.org/2000/svg">
<g clip-path="url(#clip0_479_1238)">
<path d="M161.5 55.0002C160.46 55.0002 159.433 55.0542 158.416 55.1442C157.029 50.7379 154.771 46.6549 151.776 43.1375C148.781 39.6201 145.11 36.7398 140.982 34.6674C136.853 32.595 132.35 31.3726 127.74 31.0729C123.13 30.7731 118.507 31.402 114.145 32.9222C109.871 26.6954 103.88 21.8439 96.9007 18.957C89.9214 16.0702 82.254 15.2723 74.8299 16.6602C67.4058 18.0481 60.5445 21.5621 55.0795 26.7754C49.6146 31.9886 45.7812 38.6768 44.045 46.0272C43.7 46.0172 43.352 46.0002 43 46.0002C32.6566 46.0002 22.7368 50.1092 15.4228 57.4231C8.10892 64.737 4 74.6568 4 85.0002C4 95.3437 8.10892 105.263 15.4228 112.577C22.7368 119.891 32.6566 124 43 124H161.5C170.65 124 179.425 120.365 185.895 113.895C192.365 107.425 196 98.6502 196 89.5002C196 80.3503 192.365 71.5751 185.895 65.105C179.425 58.635 170.65 55.0002 161.5 55.0002Z" fill="#D3EEF4"/>
<path d="M161.5 55.0011C160.46 55.0011 159.433 55.055 158.416 55.145C156.766 49.9029 153.889 45.1306 150.022 41.2256C146.155 37.3205 141.412 34.3957 136.186 32.6945C130.96 30.9934 125.404 30.5652 119.98 31.4456C114.555 32.326 109.419 34.4895 105 37.756C100.504 34.3279 95.2017 32.1129 89.603 31.3236C84.0043 30.5344 78.2967 31.1974 73.028 33.249C67.7593 35.3005 63.1062 38.6719 59.5155 43.0394C55.9248 47.4069 53.5169 52.624 52.5229 58.1901C48.0661 57.711 43.5584 58.1449 39.2748 59.4654C34.9912 60.7859 31.0216 62.9652 27.608 65.8704C24.1944 68.7756 21.4085 72.3458 19.4202 76.3632C17.4319 80.3806 16.2829 84.7609 16.0433 89.237C15.8037 93.7131 16.4785 98.1911 18.0265 102.398C19.5746 106.604 21.9634 110.452 25.0473 113.705C28.1312 116.958 31.8455 119.548 35.9637 121.319C40.0818 123.089 44.5174 124.002 48.9999 124.001H161.5C170.65 124.001 179.425 120.366 185.895 113.896C192.365 107.426 196 98.651 196 89.5011C196 80.3511 192.365 71.5759 185.895 65.1059C179.425 58.6359 170.65 55.0011 161.5 55.0011Z" fill="#BDE6EE"/>
<path d="M71 90.0702C51.67 90.0702 36 87.3702 36 84.0352V149.208C36 152.541 51.67 155.242 71 155.242C90.33 155.242 106 152.542 106 149.208V84.0352C106 87.3682 90.33 90.0702 71 90.0702Z" fill="#F80000"/>
<path d="M36 84.0352V149.208C36 152.541 51.67 155.242 71 155.242V90.0702C51.67 90.0702 36 87.3682 36 84.0352Z" fill="#D90000"/>
<path d="M101.172 87.1012V152.272C104.239 151.372 106 150.33 106 149.213V84.0352C106 85.1522 104.24 86.2012 101.172 87.1012Z" fill="#D90000"/>
<path d="M71 90.068C90.33 90.068 106 87.3665 106 84.034C106 80.7015 90.33 78 71 78C51.67 78 36 80.7015 36 84.034C36 87.3665 51.67 90.068 71 90.068Z" fill="#BA0000"/>
<path d="M36 125.068C36 128.401 51.67 131.102 71 131.102C90.33 131.102 106 128.402 106 125.068V129.899C106 133.231 90.33 135.933 71 135.933C51.67 135.933 36 133.233 36 129.899V125.068Z" fill="#9B0000"/>
<path d="M106 103.346C106 106.679 90.33 109.38 71 109.38C51.67 109.38 36 106.68 36 103.346V108.173C36 111.506 51.67 114.208 71 114.208C90.33 114.208 106 111.508 106 108.173V103.346Z" fill="#9B0000"/>
<path d="M156 100H88C83.5817 100 80 103.582 80 108V176C80 180.418 83.5817 184 88 184H156C160.418 184 164 180.418 164 176V108C164 103.582 160.418 100 156 100Z" fill="#E8E9E9"/>
<path d="M102.568 147.145C102.568 149.379 102.049 150.972 101.011 151.922C99.6576 152.976 97.9584 153.485 96.2484 153.348C95.311 153.379 94.3768 153.224 93.4994 152.893C92.8278 152.621 92.241 152.174 91.7994 151.599C91.3684 151.02 91.0719 150.352 90.9314 149.644C90.7722 148.87 90.6934 148.082 90.6964 147.291V146.38H94.5774V147.026C94.5324 147.871 94.6572 148.716 94.9444 149.511C95.111 149.76 95.3364 149.964 95.6005 150.105C95.8647 150.246 96.1595 150.32 96.4589 150.32C96.7583 150.32 97.0531 150.246 97.3172 150.105C97.5814 149.964 97.8067 149.76 97.9734 149.511C98.26 148.716 98.3848 147.871 98.3404 147.026V132.033H102.573L102.568 147.145Z" fill="#4C7794"/>
<path d="M112.771 132.032C113.998 131.98 115.218 132.227 116.328 132.752C117.214 133.219 117.944 133.934 118.428 134.811C118.963 135.811 119.307 136.903 119.442 138.029C119.628 139.421 119.716 140.825 119.707 142.229C119.724 143.838 119.611 145.446 119.369 147.037C119.205 148.224 118.81 149.368 118.207 150.403C117.684 151.262 116.919 151.948 116.007 152.373C114.901 152.84 113.707 153.06 112.507 153.019H105.833V132.032H112.771ZM111.947 149.907C112.568 149.935 113.185 149.804 113.74 149.524C114.226 149.231 114.602 148.788 114.813 148.261C115.114 147.521 115.293 146.736 115.343 145.938C115.432 144.978 115.476 143.783 115.476 142.352C115.476 141.156 115.436 140.107 115.357 139.205C115.308 138.436 115.144 137.678 114.872 136.956C114.662 136.402 114.281 135.928 113.785 135.604C113.199 135.274 112.531 135.115 111.859 135.148H110.065V149.907H111.947Z" fill="#4C7794"/>
<path d="M129.881 132.032C130.688 132.025 131.494 132.114 132.281 132.297C132.97 132.45 133.619 132.751 134.181 133.179C134.727 133.612 135.152 134.179 135.416 134.825C135.731 135.629 135.881 136.49 135.857 137.354C135.886 138.385 135.61 139.402 135.063 140.278C134.506 141.111 133.656 141.704 132.682 141.939V142C133.774 142.112 134.778 142.651 135.475 143.5C136.202 144.472 136.565 145.668 136.503 146.881C136.507 147.676 136.398 148.467 136.18 149.232C135.974 149.962 135.596 150.632 135.08 151.188C134.512 151.779 133.819 152.235 133.052 152.525C132.059 152.885 131.007 153.055 129.952 153.025H122.8V132.032H129.881ZM128.234 140.646C129.137 140.719 130.04 140.497 130.807 140.014C131.098 139.746 131.322 139.413 131.463 139.044C131.603 138.674 131.655 138.276 131.615 137.883C131.655 137.497 131.611 137.108 131.484 136.742C131.357 136.376 131.15 136.043 130.88 135.766C130.2 135.298 129.38 135.08 128.558 135.148H127.028V140.648L128.234 140.646ZM128.675 149.907C129.549 149.948 130.414 149.711 131.145 149.23C131.491 148.919 131.758 148.53 131.921 148.095C132.085 147.66 132.142 147.191 132.086 146.73C132.101 146.214 132.016 145.7 131.836 145.217C131.689 144.844 131.457 144.512 131.159 144.246C130.866 143.997 130.519 143.821 130.146 143.732C129.722 143.63 129.288 143.581 128.852 143.585H127.028V149.906L128.675 149.907Z" fill="#4C7794"/>
<path d="M147.859 135.781C147.667 135.432 147.376 135.147 147.023 134.961C146.67 134.775 146.271 134.697 145.874 134.737C145.401 134.719 144.937 134.87 144.566 135.164C144.169 135.537 143.888 136.017 143.758 136.546C143.531 137.362 143.393 138.2 143.346 139.046C143.268 140.074 143.229 141.333 143.229 142.823C143.215 144.109 143.269 145.394 143.39 146.675C143.451 147.453 143.62 148.22 143.89 148.953C144.041 149.402 144.342 149.786 144.742 150.041C145.109 150.233 145.519 150.329 145.934 150.32C146.29 150.323 146.644 150.258 146.977 150.13C147.333 149.974 147.627 149.705 147.814 149.365C148.093 148.862 148.282 148.315 148.373 147.748C148.528 146.84 148.597 145.92 148.579 144.999H152.812C152.817 146.082 152.729 147.164 152.548 148.233C152.399 149.181 152.064 150.09 151.563 150.908C151.069 151.685 150.366 152.307 149.535 152.702C148.466 153.173 147.303 153.394 146.135 153.349C144.827 153.409 143.525 153.146 142.343 152.584C141.415 152.089 140.66 151.321 140.182 150.384C139.648 149.307 139.319 148.141 139.211 146.945C138.918 144.019 138.918 141.071 139.211 138.145C139.318 136.943 139.647 135.771 140.182 134.69C140.667 133.745 141.418 132.963 142.343 132.441C143.516 131.849 144.822 131.57 146.135 131.632C147.369 131.571 148.597 131.824 149.707 132.367C150.517 132.798 151.194 133.444 151.662 134.234C152.092 134.985 152.367 135.815 152.471 136.674C152.575 137.488 152.629 138.308 152.633 139.129H148.4C148.473 137.986 148.288 136.842 147.859 135.781Z" fill="#4C7794"/>
</g>
<defs>
<clipPath id="clip0_479_1238">
<rect width="201" height="201" fill="white"/>
</clipPath>
</defs>
</svg>
