<svg width="800" height="800" viewBox="0 0 800 800" fill="none" xmlns="http://www.w3.org/2000/svg">
<path d="M149.4 63.3252C142.954 84.8681 139.588 107.214 139.4 129.7L175.075 146.975C174.404 125.768 175.239 104.539 177.575 83.4502C177.7 82.0002 177.85 81.1502 177.85 81.1502C177.85 81.9252 177.625 82.6752 177.575 83.4502C175.905 104.307 175.88 125.264 177.5 146.125C195.978 130.393 213.619 113.703 230.35 96.1252C226.834 86.7666 221.507 78.1934 214.673 70.8964C207.839 63.5993 199.634 57.7218 190.525 53.6002C190.525 53.6002 158.925 40.8502 149.4 63.3252Z" fill="url(#paint0_linear_476_1154)"/>
<path d="M273.1 337.375C271.425 339.2 269.7 340.925 267.95 342.65C268.85 341.825 269.775 340.85 270.625 339.95C271.5 339.141 272.327 338.281 273.1 337.375Z" fill="#BE202E"/>
<path opacity="0.35" d="M273.1 337.375C271.425 339.2 269.7 340.925 267.95 342.65C268.85 341.825 269.775 340.85 270.625 339.95C271.5 339.141 272.327 338.281 273.1 337.375Z" fill="#BE202E"/>
<path d="M260 308.9C260.3 308.675 260.525 308.375 260.8 308.15C261.925 307.025 263.05 305.9 264 304.75C262.75 306.125 261.35 307.45 260 308.9Z" fill="#BE202E"/>
<path opacity="0.35" d="M260 308.9C260.3 308.675 260.525 308.375 260.8 308.15C261.925 307.025 263.05 305.9 264 304.75C262.75 306.125 261.35 307.45 260 308.9Z" fill="#BE202E"/>
<path d="M184.5 252.3C182.833 240.434 181.333 228.767 180 217.3C178.625 205.375 177.5 193.675 176.725 182.1C176.725 181.4 176.6 180.7 176.725 180.075C175.8 168.775 175.25 157.75 175 146.95L139.375 129.775C139.375 131.925 139.125 134.15 139.05 136.5C138.7 145.025 138.425 154 138.35 163.625C138.35 174.375 138.35 185.575 138.55 197.3C138.8 208.1 139.25 219.35 139.825 230.8C140.4 240.6 141.05 250.5 141.85 260.6C141.85 261.025 141.85 261.3 141.85 261.75L189.5 285.875C187.925 274.6 186.175 263.4 184.5 252.3Z" fill="url(#paint1_linear_476_1154)"/>
<path d="M255 534.05C257.5 542.95 260.3 552.125 263.2 561.425C263.2 561.425 263.2 561.7 263.2 561.8C263.6 563.15 263.925 564.425 264.425 565.725C266.325 572 268.15 577.575 272.1 590.325C281.666 589.74 291.188 592.02 299.45 596.875C292.969 588.926 283.621 583.843 273.425 582.725C287.149 575.723 298.675 565.07 306.734 551.939C314.793 538.808 319.072 523.707 319.1 508.3C318.8 505.65 318.45 502.9 317.925 500.15C317.636 506.234 315.702 512.125 312.33 517.197C308.958 522.268 304.273 526.33 298.775 528.95C310.329 511.428 315.697 490.547 314.025 469.625C313.65 464.8 313.025 459.625 312.15 454.15C310.763 467.378 305.946 480.015 298.176 490.81C290.407 501.605 279.953 510.185 267.85 515.7L253.4 529C253.925 530.675 254.375 532.325 255 534.05Z" fill="url(#paint2_linear_476_1154)"/>
<path d="M236.325 493.376C233.3 482.076 230.275 470.601 227.2 459.026C224.3 447.926 221.525 436.726 218.75 425.376C215.975 414.026 213.3 402.601 210.65 391.176C208 379.751 205.4 367.826 202.95 356.176C200.5 344.526 198.2 332.901 195.9 321.351C195.075 317.151 194.325 313.051 193.575 308.851C192.25 301.701 191.075 294.501 189.775 287.276C189.775 286.901 189.65 286.476 189.525 286.101L142.15 261.926C142.26 262.679 142.318 263.439 142.325 264.201C143.275 274.926 144.2 285.826 145.475 296.701C146.75 307.576 148.125 318.951 149.775 330.226C151.175 339.726 152.675 349.151 154.25 358.676C154.575 360.551 154.95 362.526 155.275 364.376C157.45 376.151 159.8 387.526 162.325 398.151C165.15 410.201 168.2 421.501 171.25 432.051C173.3 438.951 175.325 445.601 177.4 451.901C179.2 457.201 181.15 462.526 183.025 467.776C187.55 480.101 192.575 492.051 198.025 503.726L245.9 527.976C243.4 519.176 240.9 510.226 238.4 501.151C237.7 498.526 237.05 496.001 236.325 493.376Z" fill="url(#paint3_linear_476_1154)"/>
<path d="M198.675 505.199C205.165 519.202 212.521 532.787 220.7 545.874C220.975 546.274 221.25 546.824 221.525 547.224C209.65 543.965 197.261 543.006 185.025 544.399C207.253 550.58 227.513 562.384 243.85 578.674C235.927 585.622 226.356 590.425 216.05 592.624C226.282 594.31 236.774 593.381 246.55 589.924C237.155 600.045 230.735 612.563 228 626.099C234.741 612.773 245.206 601.691 258.125 594.199C272.5 641.849 289.8 693.499 308.975 747.699C310.443 745.808 311.417 743.582 311.81 741.221C312.203 738.86 312.002 736.438 311.225 734.174C307.7 724.449 284.875 659.974 258.85 572.474C258.1 569.974 257.45 567.474 256.625 564.974C256.4 564.249 256.225 563.624 256 562.874C253.334 553.708 250.617 544.274 247.85 534.574C247.25 532.324 246.6 530.224 246 527.949L198.125 503.699C198.264 504.215 198.448 504.717 198.675 505.199Z" fill="url(#paint4_linear_476_1154)"/>
<path d="M195.15 286.9C195.425 288.5 195.725 289.925 196 291.55C196.925 296.3 197.75 301.1 198.725 305.925C199.725 311.2 200.825 316.575 201.875 322.1C202.4 324.875 202.925 327.65 203.525 330.5C205.25 339 207.125 347.7 209.05 356.675C211.55 367.7 214.05 379.025 216.825 390.825C219.325 401.975 222.275 413.6 225.225 425.425C228.1 436.7 231 448.25 234.2 460.2C237 470.775 240.025 481.65 243.075 492.7C243.075 493.225 243.425 493.8 243.525 494.325C246.6 505.3 249.825 516.625 253.175 528.15C253.195 528.405 253.272 528.653 253.4 528.875L267.85 515.575C267.475 515.575 267.2 515.9 266.725 516.1C286.359 494.501 298.677 467.257 301.925 438.25C303.464 423.806 303.313 409.233 301.475 394.825C299.946 382.307 297.625 369.898 294.525 357.675C291.675 346.225 288.175 334.075 283.9 321.275C280.956 327.054 277.248 332.41 272.875 337.2L270.375 339.95C269.55 340.875 268.625 341.675 267.7 342.65C279.195 323.909 282.926 301.424 278.1 279.975C274.873 289.031 270.027 297.425 263.8 304.75C262.85 305.9 261.725 307.025 260.6 308.15C260.3 308.375 260.075 308.675 259.7 308.975C263.645 302.613 266.761 295.775 268.975 288.625C269.415 287.23 269.774 285.811 270.05 284.375C270.55 282.2 270.9 280 271.225 277.8C271.35 276.35 271.575 275 271.7 273.525C271.989 270.089 271.989 266.635 271.7 263.2C271.7 262.05 271.7 261.025 271.425 259.95C271.15 258.35 270.95 256.85 270.65 255.4C269.5 248.725 268.15 242.9 266.925 237.9C266.275 235.4 265.675 233.1 265.025 231.025C264.725 230.2 264.575 229.4 264.275 228.525C263.5 226.25 262.875 224.15 262.175 222.4C261.409 220.337 260.533 218.318 259.55 216.35C259.312 217.345 258.959 218.31 258.5 219.225C254.303 227.789 248.823 235.663 242.25 242.575L255.575 230.4L242.175 242.5C242.115 242.533 242.064 242.58 242.025 242.636C241.986 242.692 241.96 242.757 241.95 242.825C241.261 243.514 240.61 244.24 240 245C240 244.825 240.225 244.675 240.25 244.525L194.75 286.15C195.125 286.475 195.175 286.725 195.15 286.9Z" fill="url(#paint5_linear_476_1154)"/>
<path d="M177.5 146.125C178.05 156.125 178.925 167.325 180 179.725C180.022 180.38 180.097 181.033 180.225 181.675C181.25 192.5 182.575 204.175 184.275 216.9C185.725 227.875 187.325 239.4 189.275 251.9C190.9 262.725 192.9 274.05 194.95 286.075L240.45 244.4C248.188 232.081 252.159 217.77 251.875 203.225C251.875 199.65 251.6 195.9 251.325 192.05C250.61 180.058 249.291 168.11 247.375 156.25C245.685 145.414 243.423 134.674 240.6 124.075C239.133 118.55 237.389 113.101 235.375 107.75C233.75 103.675 232.05 99.9504 230.375 96.4004C213.597 113.854 195.95 130.45 177.5 146.125Z" fill="url(#paint6_linear_476_1154)"/>
<path d="M270.675 340C269.85 340.925 268.925 341.725 268 342.7C268.842 341.752 269.735 340.851 270.675 340Z" fill="#BE202E"/>
<path opacity="0.35" d="M270.675 340C269.85 340.925 268.925 341.725 268 342.7C268.842 341.752 269.735 340.851 270.675 340Z" fill="#BE202E"/>
<path d="M270.675 340C269.85 340.925 268.925 341.725 268 342.7C268.842 341.752 269.735 340.851 270.675 340Z" fill="url(#paint7_linear_476_1154)"/>
<path d="M260 308.975C260.3 308.75 260.525 308.45 260.9 308.15C260.6 308.375 260.375 308.675 260 308.975Z" fill="#BE202E"/>
<path opacity="0.35" d="M260 308.975C260.3 308.75 260.525 308.45 260.9 308.15C260.6 308.375 260.375 308.675 260 308.975Z" fill="#BE202E"/>
<path d="M260 308.975C260.3 308.75 260.525 308.45 260.9 308.15C260.6 308.375 260.375 308.675 260 308.975Z" fill="url(#paint8_linear_476_1154)"/>
<path d="M615.675 72.2757C593.405 84.5245 572.978 99.8595 555 117.826L570 160.076C586.315 142.479 603.859 126.063 622.5 110.951C623.775 109.901 624.55 109.301 624.55 109.301C623.9 109.901 623.15 110.351 622.5 110.951C604.537 126.386 587.818 143.213 572.5 161.276C599.85 163.31 627.287 163.911 654.7 163.076C659.326 152.737 661.864 141.587 662.168 130.265C662.473 118.943 660.538 107.673 656.475 97.1007C656.475 97.1007 641.175 61.7507 615.675 72.2757Z" fill="url(#paint9_linear_476_1154)"/>
<path d="M497.5 391.15C494.7 391.3 491.925 391.3 489.15 391.3C490.525 391.3 492.05 391.3 493.45 391.3C494.802 391.33 496.155 391.28 497.5 391.15Z" fill="#BE202E"/>
<path opacity="0.35" d="M497.5 391.15C494.7 391.3 491.925 391.3 489.15 391.3C490.525 391.3 492.05 391.3 493.45 391.3C494.802 391.33 496.155 391.28 497.5 391.15Z" fill="#BE202E"/>
<path d="M509.6 357.85C510 357.85 510.425 357.85 510.85 357.85C512.65 357.85 514.45 357.85 516.15 357.65C514.05 357.65 511.85 357.65 509.625 357.8L509.6 357.85Z" fill="#BE202E"/>
<path opacity="0.35" d="M509.6 357.85C510 357.85 510.425 357.85 510.85 357.85C512.65 357.85 514.45 357.85 516.15 357.65C514.05 357.65 511.85 357.65 509.625 357.8L509.6 357.85Z" fill="#BE202E"/>
<path d="M493.775 252.275C501.875 241.409 509.942 230.809 517.975 220.475C526.325 209.775 534.775 199.525 543.3 189.55C543.8 188.925 544.325 188.325 544.8 187.825C553.15 178.1 561.45 168.8 569.8 159.9L554.8 117.775C553.025 119.45 551.125 121.125 549.2 122.9C542.125 129.475 534.725 136.575 527.1 144.175C518.5 152.75 509.6 161.85 500.5 171.45C492.125 180.35 483.55 189.75 474.925 199.425C467.6 207.775 460.25 216.25 452.875 225.025L452.025 226L471.2 283.275C478.825 272.95 486.3 262.5 493.775 252.275Z" fill="url(#paint10_linear_476_1154)"/>
<path d="M326.575 535.001C321.575 544.251 316.575 553.751 311.45 563.551C311.45 563.676 311.275 563.801 311.25 563.926C310.5 565.351 309.75 566.626 309.125 568.051C305.675 574.601 302.725 580.551 295.775 593.951C303.944 601.077 309.802 610.478 312.6 620.951C313.696 609.409 310.212 597.898 302.9 588.901C341.85 596.401 377.225 591.401 398.8 565.276C400.675 562.926 402.55 560.426 404.325 557.776C399.256 562.439 393.018 565.641 386.274 567.041C379.529 568.441 372.532 567.986 366.025 565.726C389.255 560.774 410.163 548.2 425.425 530.001C428.95 525.801 432.525 521.201 436.2 516.051C424.573 525.6 410.653 531.947 395.82 534.464C380.986 536.98 365.752 535.58 351.625 530.401L329.425 529.626C328.475 531.526 327.5 533.201 326.575 535.001Z" fill="url(#paint11_linear_476_1154)"/>
<path d="M343.95 487.5C350.5 475.975 357.175 464.35 363.95 452.5C370.45 441.25 377.075 430 383.95 418.7C390.825 407.4 397.675 396.05 404.6 384.725C411.525 373.4 418.925 361.75 426.275 350.35C433.625 338.95 440.95 327.85 448.25 316.7C450.925 312.65 453.575 308.75 456.375 304.725C460.975 297.925 465.725 291.125 470.45 284.35C470.65 283.975 470.975 283.6 471.175 283.2L452.25 226.1C451.737 226.795 451.178 227.455 450.575 228.075C442.825 237.475 434.925 246.975 427.225 256.8C419.525 266.625 411.675 276.8 404.05 287.225C397.625 295.975 391.35 304.725 385.05 313.675C383.825 315.425 382.55 317.325 381.35 319.1C373.85 330.325 366.575 341.325 360.175 351.9C352.875 363.85 346.325 375.375 340.45 386.275C336.625 393.475 332.95 400.425 329.625 407.15C326.85 412.85 324.2 418.675 321.55 424.4C315.4 437.9 309.95 451.525 305.025 465.225L324.3 522.725C329.3 513.6 334.45 504.525 339.575 495.225C340.95 492.75 342.5 490.2 343.95 487.5Z" fill="url(#paint12_linear_476_1154)"/>
<path d="M304.25 467.15C298.353 483.581 293.485 500.364 289.675 517.4C289.675 517.95 289.35 518.6 289.275 519.15C282.302 507.09 273.086 496.474 262.125 487.875C275.108 510.51 282.039 536.108 282.25 562.2C270.346 561.494 258.821 557.75 248.775 551.325C255.671 560.818 264.855 568.412 275.475 573.4C259.873 574.089 244.761 579.062 231.8 587.775C247.817 582.408 265.049 581.809 281.4 586.05C255 635.8 228 691.125 200.375 750C203.049 749.637 205.591 748.615 207.773 747.027C209.954 745.439 211.708 743.333 212.875 740.9C217.875 730.25 250.625 660.25 299.2 569.1C300.55 566.6 302.025 563.975 303.4 561.25C303.8 560.475 304.15 559.825 304.55 559.075C309.683 549.575 314.992 539.825 320.475 529.825C321.775 527.525 322.975 525.325 324.25 523.025V522.9L304.975 465.4C304.679 465.959 304.436 466.545 304.25 467.15Z" fill="url(#paint13_linear_476_1154)"/>
<path d="M474.85 288.6C473.8 290.1 472.9 291.5 471.85 293C468.825 297.55 465.675 302.075 462.625 306.75C459.575 311.425 455.85 316.975 452.3 322.275C450.525 324.925 448.75 327.575 446.95 330.35C441.575 338.575 436.175 347.075 430.6 355.8C423.75 366.575 416.85 377.75 409.725 389.45C402.975 400.525 396 412.1 389 423.975C382.35 435.325 375.525 446.95 368.6 458.975C362.45 469.725 356.25 480.85 349.85 492.25C349.5 492.75 349.275 493.4 348.925 493.925C342.7 505.2 336.275 516.875 329.8 528.925C329.61 529.149 329.474 529.414 329.4 529.7L351.6 530.475C351.225 530.275 350.8 530.225 350.275 530C383.239 528.203 414.795 516.051 440.45 495.275C453.184 484.887 464.661 473.048 474.65 460C483.358 448.708 491.341 436.876 498.55 424.575C505.35 413.1 512.2 400.525 518.925 386.825C511.965 389.134 504.725 390.497 497.4 390.875L493.2 391.1C491.8 391.1 490.425 391.1 488.9 391.1C513.038 385.139 533.899 369.999 547.05 348.9C537.257 353.632 526.685 356.546 515.85 357.5C514.15 357.675 512.35 357.675 510.55 357.7C510.15 357.7 509.725 357.7 509.175 357.7C517.401 355.716 525.34 352.692 532.8 348.7C534.264 347.949 535.683 347.114 537.05 346.2C539.2 344.85 541.2 343.35 543.225 341.85C544.5 340.8 545.725 339.85 547 338.8C549.947 336.241 552.673 333.44 555.15 330.425C556 329.45 556.8 328.6 557.5 327.575C558.55 326.075 559.575 324.7 560.475 323.3C564.85 317.025 568.475 311.3 571.45 306.2C572.925 303.7 574.25 301.35 575.4 299.15C575.8 298.25 576.325 297.475 576.75 296.65C577.95 294.15 579.1 292 579.925 290.05C580.941 287.783 581.834 285.463 582.6 283.1C581.619 283.71 580.57 284.205 579.475 284.575C569.295 288.139 558.631 290.128 547.85 290.475C547.784 290.443 547.711 290.427 547.638 290.427C547.564 290.427 547.492 290.443 547.425 290.475C546.359 290.419 545.291 290.419 544.225 290.475C544.375 290.475 544.65 290.475 544.8 290.275L475.05 287.775C475.175 288.225 475 288.475 474.85 288.6Z" fill="url(#paint14_linear_476_1154)"/>
<path d="M572.5 161.301C565 169.776 556.8 179.501 547.85 190.401C547.345 190.946 546.885 191.531 546.475 192.151C538.7 201.676 530.525 212.151 521.75 223.726C514.25 233.726 506.25 244.326 497.9 255.976C490.6 265.976 483.225 276.701 475.4 288.001L545.15 290.501C561.169 286.739 575.741 278.38 587.075 266.451C589.85 263.526 592.675 260.351 595.525 257.026C604.449 246.78 612.851 236.091 620.7 225.001C627.912 214.934 634.588 204.495 640.7 193.726C643.913 188.118 646.841 182.352 649.475 176.451C651.4 171.876 653 167.551 654.475 163.326C627.134 164.028 599.774 163.352 572.5 161.301Z" fill="url(#paint15_linear_476_1154)"/>
<path d="M493.45 391.375C492.05 391.375 490.675 391.375 489.15 391.375C490.583 391.297 492.018 391.297 493.45 391.375Z" fill="#BE202E"/>
<path opacity="0.35" d="M493.45 391.375C492.05 391.375 490.675 391.375 489.15 391.375C490.583 391.297 492.018 391.297 493.45 391.375Z" fill="#BE202E"/>
<path d="M493.45 391.375C492.05 391.375 490.675 391.375 489.15 391.375C490.583 391.297 492.018 391.297 493.45 391.375Z" fill="url(#paint16_linear_476_1154)"/>
<defs>
<linearGradient id="paint0_linear_476_1154" x1="135.74" y1="57.2617" x2="222.832" y2="-53.2238" gradientUnits="userSpaceOnUse">
<stop stop-color="#F69923"/>
<stop offset="0.312" stop-color="#F79A23"/>
<stop offset="0.838" stop-color="#E97826"/>
</linearGradient>
<linearGradient id="paint1_linear_476_1154" x1="255.495" y1="723.391" x2="128.62" y2="83.4969" gradientUnits="userSpaceOnUse">
<stop offset="0.323" stop-color="#9E2064"/>
<stop offset="0.63" stop-color="#C92037"/>
<stop offset="0.751" stop-color="#CD2335"/>
<stop offset="1" stop-color="#E97826"/>
</linearGradient>
<linearGradient id="paint2_linear_476_1154" x1="304.488" y1="633.396" x2="228.883" y2="252.083" gradientUnits="userSpaceOnUse">
<stop stop-color="#282662"/>
<stop offset="0.095" stop-color="#662E8D"/>
<stop offset="0.788" stop-color="#9F2064"/>
<stop offset="0.949" stop-color="#CD2032"/>
</linearGradient>
<linearGradient id="paint3_linear_476_1154" x1="242.46" y1="688.623" x2="115.584" y2="48.7295" gradientUnits="userSpaceOnUse">
<stop offset="0.323" stop-color="#9E2064"/>
<stop offset="0.63" stop-color="#C92037"/>
<stop offset="0.751" stop-color="#CD2335"/>
<stop offset="1" stop-color="#E97826"/>
</linearGradient>
<linearGradient id="paint4_linear_476_1154" x1="241.973" y1="640.214" x2="175.297" y2="303.933" gradientUnits="userSpaceOnUse">
<stop stop-color="#282662"/>
<stop offset="0.095" stop-color="#662E8D"/>
<stop offset="0.788" stop-color="#9F2064"/>
<stop offset="0.949" stop-color="#CD2032"/>
</linearGradient>
<linearGradient id="paint5_linear_476_1154" x1="308.678" y1="675.492" x2="181.803" y2="35.5987" gradientUnits="userSpaceOnUse">
<stop offset="0.323" stop-color="#9E2064"/>
<stop offset="0.63" stop-color="#C92037"/>
<stop offset="0.751" stop-color="#CD2335"/>
<stop offset="1" stop-color="#E97826"/>
</linearGradient>
<linearGradient id="paint6_linear_476_1154" x1="313.341" y1="715.824" x2="186.466" y2="75.9307" gradientUnits="userSpaceOnUse">
<stop offset="0.323" stop-color="#9E2064"/>
<stop offset="0.63" stop-color="#C92037"/>
<stop offset="0.751" stop-color="#CD2335"/>
<stop offset="1" stop-color="#E97826"/>
</linearGradient>
<linearGradient id="paint7_linear_476_1154" x1="328.514" y1="671.559" x2="201.638" y2="31.6669" gradientUnits="userSpaceOnUse">
<stop offset="0.323" stop-color="#9E2064"/>
<stop offset="0.63" stop-color="#C92037"/>
<stop offset="0.751" stop-color="#CD2335"/>
<stop offset="1" stop-color="#E97826"/>
</linearGradient>
<linearGradient id="paint8_linear_476_1154" x1="326.186" y1="672.022" x2="199.311" y2="32.128" gradientUnits="userSpaceOnUse">
<stop offset="0.323" stop-color="#9E2064"/>
<stop offset="0.63" stop-color="#C92037"/>
<stop offset="0.751" stop-color="#CD2335"/>
<stop offset="1" stop-color="#E97826"/>
</linearGradient>
<linearGradient id="paint9_linear_476_1154" x1="520.933" y1="99.6055" x2="679.409" y2="79.9105" gradientUnits="userSpaceOnUse">
<stop stop-color="#F69923"/>
<stop offset="0.312" stop-color="#F79A23"/>
<stop offset="0.838" stop-color="#E97826"/>
</linearGradient>
<linearGradient id="paint10_linear_476_1154" x1="86.0427" y1="732.932" x2="494.251" y2="115.103" gradientUnits="userSpaceOnUse">
<stop offset="0.323" stop-color="#9E2064"/>
<stop offset="0.63" stop-color="#C92037"/>
<stop offset="0.751" stop-color="#CD2335"/>
<stop offset="1" stop-color="#E97826"/>
</linearGradient>
<linearGradient id="paint11_linear_476_1154" x1="197.409" y1="699.375" x2="440.662" y2="331.209" gradientUnits="userSpaceOnUse">
<stop stop-color="#282662"/>
<stop offset="0.095" stop-color="#662E8D"/>
<stop offset="0.788" stop-color="#9F2064"/>
<stop offset="0.949" stop-color="#CD2032"/>
</linearGradient>
<linearGradient id="paint12_linear_476_1154" x1="103.263" y1="694.46" x2="511.472" y2="76.6317" gradientUnits="userSpaceOnUse">
<stop offset="0.323" stop-color="#9E2064"/>
<stop offset="0.63" stop-color="#C92037"/>
<stop offset="0.751" stop-color="#CD2335"/>
<stop offset="1" stop-color="#E97826"/>
</linearGradient>
<linearGradient id="paint13_linear_476_1154" x1="141.499" y1="654.993" x2="356.024" y2="330.308" gradientUnits="userSpaceOnUse">
<stop stop-color="#282662"/>
<stop offset="0.095" stop-color="#662E8D"/>
<stop offset="0.788" stop-color="#9F2064"/>
<stop offset="0.949" stop-color="#CD2032"/>
</linearGradient>
<linearGradient id="paint14_linear_476_1154" x1="167.199" y1="736.703" x2="575.407" y2="118.875" gradientUnits="userSpaceOnUse">
<stop offset="0.323" stop-color="#9E2064"/>
<stop offset="0.63" stop-color="#C92037"/>
<stop offset="0.751" stop-color="#CD2335"/>
<stop offset="1" stop-color="#E97826"/>
</linearGradient>
<linearGradient id="paint15_linear_476_1154" x1="138.776" y1="772.983" x2="546.984" y2="155.154" gradientUnits="userSpaceOnUse">
<stop offset="0.323" stop-color="#9E2064"/>
<stop offset="0.63" stop-color="#C92037"/>
<stop offset="0.751" stop-color="#CD2335"/>
<stop offset="1" stop-color="#E97826"/>
</linearGradient>
<linearGradient id="paint16_linear_476_1154" x1="186.349" y1="749.358" x2="594.556" y2="131.527" gradientUnits="userSpaceOnUse">
<stop offset="0.323" stop-color="#9E2064"/>
<stop offset="0.63" stop-color="#C92037"/>
<stop offset="0.751" stop-color="#CD2335"/>
<stop offset="1" stop-color="#E97826"/>
</linearGradient>
</defs>
</svg>
