<svg width="512" height="52" viewBox="0 0 512 52" fill="none" xmlns="http://www.w3.org/2000/svg">
<path d="M30.7183 51.7225H481.277C485.312 51.7225 489.307 51.0536 493.035 49.7538C496.763 48.454 500.15 46.5489 503.003 44.1472C505.855 41.7456 508.118 38.8944 509.662 35.7566C511.206 32.6188 512 29.2557 512 25.8595C512 22.4635 511.206 19.1006 509.662 15.963C508.118 12.8253 505.855 9.97441 503.002 7.57304C500.149 5.17167 496.762 3.2669 493.034 1.9675C489.307 0.668101 485.311 -0.000464493 481.277 2.42119e-07H30.7183C22.6318 0.0796132 14.9086 2.83933 9.22367 7.68061C3.53877 12.5219 0.350586 19.0544 0.350586 25.8613C0.350586 32.6682 3.53877 39.2007 9.22367 44.0419C14.9086 48.8832 22.6318 51.6429 30.7183 51.7225Z" fill="black"/>
</svg>
