<svg width="24" height="24" viewBox="0 0 24 24" fill="none" xmlns="http://www.w3.org/2000/svg">
<path fill-rule="evenodd" clip-rule="evenodd" d="M17.7642 5.40577C16.2339 4.07915 14.2371 3.27637 12.0528 3.27637C7.23483 3.27637 3.3291 7.18209 3.3291 12.0001C3.3291 16.818 7.23483 20.7237 12.0528 20.7237C16.8707 20.7237 20.7765 16.818 20.7765 12.0001C20.7765 11.2316 20.6771 10.4863 20.4905 9.77634L21.6798 8.55032C22.0661 9.62804 22.2765 10.7895 22.2765 12.0001C22.2765 17.6464 17.6992 22.2237 12.0528 22.2237C6.4064 22.2237 1.8291 17.6464 1.8291 12.0001C1.8291 6.35367 6.4064 1.77637 12.0528 1.77637C14.6431 1.77637 17.0084 2.7397 18.8101 4.32766L17.7642 5.40577Z" fill="#00D415"/>
<path d="M22.7801 3.75531L11.7167 15.23L8.25612 11.6569" stroke="#00D415" stroke-width="1.5"/>
</svg>
