<svg width="48" height="48" viewBox="0 0 48 48" fill="none" xmlns="http://www.w3.org/2000/svg">
<g clip-path="url(#clip0_512_1031)">
<path d="M46.125 25.875H25.875V46.125C25.875 47.1606 25.0356 48 24 48C22.9644 48 22.125 47.1606 22.125 46.125V25.875H1.875C0.839438 25.875 0 25.0356 0 24C0 22.9644 0.839438 22.125 1.875 22.125H22.125V1.875C22.125 0.839438 22.9644 0 24 0C25.0356 0 25.875 0.839438 25.875 1.875V22.125H46.125C47.1606 22.125 48 22.9644 48 24C48 25.0356 47.1606 25.875 46.125 25.875Z" fill="black"/>
</g>
<defs>
<clipPath id="clip0_512_1031">
<rect width="48" height="48" fill="white" transform="matrix(1 0 0 -1 0 48)"/>
</clipPath>
</defs>
</svg>
