<svg width="20" height="20" viewBox="0 0 20 20" fill="none" xmlns="http://www.w3.org/2000/svg">
<path d="M0.46875 20H19.5312C19.6556 20 19.7748 19.9455 19.8627 19.8485C19.9506 19.7515 20 19.6199 20 19.4828C20 19.3456 19.9506 19.214 19.8627 19.117C19.7748 19.02 19.6556 18.9655 19.5312 18.9655H17.1826V7.5431C17.1826 7.40592 17.1332 7.27436 17.0453 7.17736C16.9574 7.08036 16.8382 7.02586 16.7139 7.02586H13.8818C13.7575 7.02586 13.6383 7.08036 13.5504 7.17736C13.4625 7.27436 13.4131 7.40592 13.4131 7.5431V18.9655H11.8848V10.0647C11.8848 9.92747 11.8354 9.79591 11.7475 9.69891C11.6596 9.60191 11.5403 9.54741 11.416 9.54741H8.58398C8.45966 9.54741 8.34044 9.60191 8.25253 9.69891C8.16462 9.79591 8.11523 9.92747 8.11523 10.0647V18.9655H6.58691V12.5862C6.58691 12.449 6.53753 12.3175 6.44962 12.2205C6.36171 12.1235 6.24248 12.069 6.11816 12.069H3.28613C3.16181 12.069 3.04258 12.1235 2.95468 12.2205C2.86677 12.3175 2.81738 12.449 2.81738 12.5862V18.9655H0.46875C0.34443 18.9655 0.225201 19.02 0.137294 19.117C0.049386 19.214 0 19.3456 0 19.4828C0 19.6199 0.049386 19.7515 0.137294 19.8485C0.225201 19.9455 0.34443 20 0.46875 20ZM14.3506 8.06034H16.2451V18.9655H14.3506V8.06034ZM9.05273 10.5819H10.9473V18.9655H9.05273V10.5819ZM3.75488 13.1034H5.64941V18.9655H3.75488V13.1034ZM2.79418 11.1004C2.77607 11.0355 2.76973 10.9673 2.77552 10.8996C2.78131 10.832 2.79911 10.7663 2.82792 10.7062C2.85673 10.6462 2.89598 10.593 2.94342 10.5497C2.99086 10.5064 3.04557 10.4738 3.10441 10.4539C8.07739 8.77632 12.4821 5.49597 15.7523 1.03448H13.8623C13.738 1.03448 13.6188 0.979988 13.5308 0.882986C13.4429 0.785985 13.3936 0.654422 13.3936 0.517241C13.3936 0.38006 13.4429 0.248498 13.5308 0.151497C13.6188 0.0544949 13.738 2.04416e-09 13.8623 0H16.7139C16.8382 0 16.9574 0.0544949 17.0453 0.151497C17.1332 0.248498 17.1826 0.38006 17.1826 0.517241V3.66379C17.1826 3.80097 17.1332 3.93254 17.0453 4.02954C16.9574 4.12654 16.8382 4.18103 16.7139 4.18103C16.5895 4.18103 16.4703 4.12654 16.3824 4.02954C16.2945 3.93254 16.2451 3.80097 16.2451 3.66379V2.00142C14.6852 4.06493 12.8804 5.88717 10.8796 7.41897C8.58265 9.17879 6.05291 10.5361 3.38004 11.4427C3.3212 11.4628 3.25935 11.4698 3.19804 11.4634C3.13673 11.4571 3.07716 11.4374 3.02273 11.4056C2.96831 11.3738 2.9201 11.3305 2.88087 11.2781C2.84164 11.2258 2.81215 11.1654 2.7941 11.1004L2.79418 11.1004Z" fill="black"/>
</svg>
