<svg width="512" height="512" viewBox="0 0 512 512" fill="none" xmlns="http://www.w3.org/2000/svg">
<g clip-path="url(#clip0_405_1035)">
<path d="M495.642 466.351L373.785 339.614C405.127 302.427 422.307 255.353 422.283 206.72C422.283 92.7363 329.547 0 215.564 0C101.58 0 8.84375 92.7363 8.84375 206.72C8.84375 320.703 101.58 413.44 215.564 413.44C258.355 413.44 299.132 400.533 333.996 376.032L456.779 503.731C461.911 509.061 468.813 512 476.21 512C483.212 512 489.854 509.331 494.896 504.477C500.042 499.516 503.011 492.716 503.151 485.568C503.291 478.421 500.59 471.51 495.642 466.351ZM215.564 53.9269C299.815 53.9269 368.356 122.468 368.356 206.72C368.356 290.972 299.815 359.513 215.564 359.513C131.312 359.513 62.7707 290.972 62.7707 206.72C62.7707 122.468 131.312 53.9269 215.564 53.9269Z" fill="black"/>
</g>
<defs>
<clipPath id="clip0_405_1035">
<rect width="512" height="512" fill="white"/>
</clipPath>
</defs>
</svg>
