<svg width="20" height="20" viewBox="0 0 20 20" fill="none" xmlns="http://www.w3.org/2000/svg">
<path d="M10.491 11.8883C10.2105 11.8883 9.9832 12.1156 9.9832 12.3961C9.98297 13.7106 8.91723 14.776 7.60273 14.7758C6.28824 14.7755 5.22281 13.7098 5.22305 12.3953C5.22328 11.081 6.28879 10.0156 7.60312 10.0156C7.88359 10.0156 8.11094 9.78828 8.11094 9.50781C8.11094 9.22734 7.88359 9 7.60312 9C5.72805 9.00129 4.20832 10.521 4.20703 12.3961C4.20703 14.2716 5.72742 15.792 7.60293 15.792C9.47844 15.792 10.9988 14.2716 10.9988 12.3961C10.9988 12.1156 10.7715 11.8883 10.491 11.8883Z" fill="black"/>
<path d="M14.5258 13.5655C14.4773 13.2893 14.2141 13.1046 13.9379 13.153L12.875 13.3394C12.6806 13.3734 12.5235 13.5171 12.4723 13.7077C12.3589 14.1283 12.1913 14.5324 11.9734 14.9097C11.8741 15.0811 11.8836 15.2946 11.9977 15.4565L12.618 16.3405C12.7048 16.4637 12.6902 16.6314 12.5836 16.7378L11.9461 17.3753C11.8398 17.4819 11.6723 17.4965 11.5492 17.4101L10.6652 16.7897C10.5033 16.6757 10.2898 16.6662 10.1184 16.7655C9.74113 16.9834 9.33707 17.1511 8.91641 17.2644C8.72578 17.3156 8.58211 17.4727 8.54805 17.6671L8.35938 18.7288C8.33356 18.8771 8.20477 18.9852 8.0543 18.9851H7.15235C7.00188 18.9852 6.87313 18.8771 6.84727 18.7288L6.66094 17.6663C6.62688 17.4719 6.4832 17.3148 6.29258 17.2636C5.87184 17.1503 5.46766 16.9826 5.09024 16.7647C4.91883 16.6654 4.70531 16.6749 4.54336 16.789L3.66094 17.4089C3.53781 17.4957 3.37008 17.4812 3.26367 17.3745L2.62617 16.737C2.51977 16.6307 2.50512 16.4633 2.59141 16.3401L3.21172 15.4562C3.32574 15.2942 3.33524 15.0807 3.23594 14.9093C3.01801 14.5321 2.85031 14.128 2.73711 13.7073C2.68586 13.5167 2.52879 13.373 2.33438 13.339L1.27188 13.1526C1.12391 13.1269 1.01586 12.9985 1.01563 12.8483V11.9464C1.01547 11.7959 1.12363 11.6672 1.27188 11.6413L2.33438 11.455C2.52879 11.4209 2.68586 11.2772 2.73711 11.0866C2.85024 10.6655 3.01793 10.2611 3.23594 9.8835C3.33524 9.71209 3.32574 9.49857 3.21172 9.33662L2.5918 8.45537C2.505 8.33225 2.51953 8.16451 2.62617 8.05811L3.26406 7.42022C3.37039 7.31377 3.53789 7.29928 3.66094 7.38584L4.54492 8.00615C4.70688 8.12022 4.92039 8.12967 5.0918 8.03037C5.46918 7.81252 5.87336 7.64482 6.29414 7.53154C6.48477 7.48029 6.62844 7.32322 6.6625 7.12881L6.84883 6.06631C6.89727 5.79006 6.71258 5.52686 6.43633 5.47842C6.16008 5.42998 5.89688 5.61467 5.84844 5.89092L5.71641 6.64482C5.4268 6.74049 5.14488 6.85803 4.87305 6.99639L4.2461 6.55654C3.71938 6.18592 3.00231 6.24842 2.54766 6.70459L1.90781 7.34014C1.45207 7.79502 1.38977 8.51186 1.76016 9.03857L2.2 9.66553C2.0616 9.93744 1.94406 10.2195 1.84844 10.5093L1.09453 10.6413C0.461017 10.7526 -0.000780161 11.3032 1.08911e-06 11.9464V12.8483C-0.000819223 13.4922 0.461837 14.0432 1.09609 14.1538L1.85 14.2862C1.94563 14.5758 2.06317 14.8578 2.20156 15.1296L1.76016 15.7565C1.38988 16.2833 1.45234 17.0002 1.9082 17.455L2.5461 18.0925C3.0009 18.5484 3.71785 18.6107 4.24453 18.2401L4.86953 17.8003C5.14137 17.9387 5.42328 18.0562 5.71289 18.1519L5.84492 18.9058C5.95617 19.5403 6.50813 20.0026 7.15235 20.0007H8.0543C8.69828 20.0015 9.24934 19.5386 9.35977 18.9042L9.49219 18.1503C9.7818 18.0546 10.0638 17.9371 10.3355 17.7987L10.9629 18.2386C11.4897 18.609 12.2066 18.5465 12.6613 18.0905L13.2992 17.4526C13.7551 16.9978 13.8175 16.281 13.4473 15.7542L13.0078 15.1292C13.1462 14.8574 13.2637 14.5754 13.3594 14.2858L14.1133 14.1534C14.3895 14.105 14.5742 13.8418 14.5258 13.5655Z" fill="black"/>
<path d="M19.0473 4.60938L18.516 4.51641C18.4497 4.32484 18.3714 4.13762 18.2816 3.95586L18.5941 3.51563C18.9161 3.05781 18.8618 2.43473 18.4656 2.03945L17.9625 1.53516C17.567 1.13813 16.943 1.08367 16.4848 1.40625L16.043 1.71602C15.8612 1.62625 15.674 1.54797 15.4824 1.48164L15.391 0.952736C15.2948 0.401251 14.8157 -0.000896935 14.2559 1.50239e-06H13.5453C12.9855 -0.000701623 12.5065 0.401642 12.4105 0.953126L12.3172 1.48438C12.1256 1.5507 11.9384 1.62899 11.7566 1.71875L11.3148 1.40625C10.857 1.0843 10.2339 1.13856 9.83867 1.53477L9.33633 2.03789C8.9393 2.43336 8.88485 3.05738 9.20742 3.51563L9.51719 3.95742C9.42742 4.13918 9.34914 4.32641 9.28281 4.51797L8.75352 4.60938C8.20219 4.70555 7.80008 5.18449 7.80078 5.74414V6.45469C7.79969 7.01461 8.20192 7.49402 8.75352 7.59024L9.28438 7.6832C9.35071 7.87477 9.42899 8.06199 9.51875 8.24375L9.2086 8.68555C8.8866 9.1432 8.94051 9.76617 9.33633 10.1617L9.83867 10.6641C10.234 11.0605 10.8573 11.1148 11.3152 10.7926L11.7582 10.4828C11.94 10.5725 12.1272 10.6508 12.3188 10.7172L12.4121 11.2484C12.5083 11.7998 12.9872 12.2019 13.5469 12.2012H14.2574C14.8172 12.2012 15.2958 11.7982 15.391 11.2465L15.484 10.7156C15.6755 10.6493 15.8628 10.571 16.0445 10.4813L16.4848 10.793C16.943 11.1157 17.5671 11.0612 17.9625 10.6641L18.4652 10.1613C18.8612 9.76613 18.9156 9.1434 18.5941 8.68555L18.2836 8.24219C18.3733 8.06039 18.4516 7.8732 18.518 7.68164L19.0492 7.58828C19.5993 7.49156 20.0005 7.01363 20.0004 6.45508V5.74453C20.0013 5.18461 19.5989 4.70539 19.0473 4.60938ZM18.9848 6.45625C18.9848 6.52254 18.9372 6.57922 18.8719 6.59063L18.0344 6.7375C17.84 6.77156 17.6829 6.91524 17.6316 7.10586C17.5448 7.42836 17.4162 7.73813 17.2492 8.02734C17.1499 8.19875 17.1594 8.41227 17.2734 8.57422L17.7621 9.27109C17.8003 9.32535 17.7939 9.39926 17.7469 9.44609L17.2445 9.94844C17.1972 9.99395 17.1241 9.99918 17.0707 9.96094L16.3727 9.47266C16.2107 9.35859 15.9972 9.34914 15.8258 9.44844C15.5366 9.61547 15.2268 9.74402 14.9043 9.83086C14.7141 9.88274 14.5711 10.0401 14.5375 10.2344L14.3906 11.0719C14.3792 11.1371 14.3225 11.1848 14.2563 11.1848H13.5453C13.479 11.1848 13.4223 11.1371 13.4109 11.0719L13.2637 10.2344C13.2296 10.04 13.0859 9.88289 12.8953 9.83164C12.5727 9.74477 12.2628 9.61621 11.9734 9.44922C11.802 9.34992 11.5885 9.35938 11.4266 9.47344L10.7316 9.96094C10.6774 9.99914 10.6035 9.9927 10.5566 9.9457L10.0543 9.44336C10.0073 9.39652 10.0009 9.32262 10.0391 9.26836L10.5277 8.57149C10.6418 8.40953 10.6513 8.19602 10.552 8.02461C10.3849 7.73543 10.2563 7.42563 10.1695 7.10313C10.1175 6.91305 9.96024 6.7702 9.76602 6.73672L8.92852 6.58984C8.86324 6.57844 8.81559 6.52176 8.81563 6.45547L8.81602 5.74453C8.81598 5.67824 8.86364 5.62156 8.92891 5.61016L9.76602 5.46289C9.96043 5.42883 10.1175 5.28516 10.1688 5.09453C10.2556 4.77203 10.3841 4.46227 10.5512 4.17305C10.6505 4.00164 10.641 3.78813 10.527 3.62617L10.0395 2.92969C10.0013 2.87543 10.0077 2.80152 10.0547 2.75469L10.5574 2.25195C10.6043 2.20496 10.6782 2.19852 10.7324 2.23672L11.4289 2.72539C11.5909 2.83942 11.8044 2.84891 11.9758 2.74961C12.265 2.58258 12.5748 2.45402 12.8973 2.36719C13.0879 2.31594 13.2316 2.15887 13.2656 1.96445L13.4125 1.12695C13.4245 1.06285 13.4801 1.01621 13.5453 1.01563H14.2559C14.3222 1.01559 14.3788 1.06324 14.3902 1.12852L14.5371 1.96602C14.5712 2.16043 14.7148 2.3175 14.9055 2.36875C15.228 2.45555 15.5378 2.5841 15.827 2.75117C15.9984 2.85047 16.2119 2.84102 16.3738 2.72695L17.0707 2.23828C17.125 2.20008 17.1989 2.20652 17.2457 2.25352L17.7484 2.75625C17.7941 2.80328 17.7998 2.8761 17.7621 2.92969L17.2734 3.62774C17.1594 3.78969 17.1499 4.0032 17.2492 4.17461C17.4162 4.46383 17.5448 4.7736 17.6316 5.0961C17.6829 5.28672 17.84 5.43039 18.0344 5.46445L18.8719 5.61133C18.9372 5.62274 18.9848 5.67942 18.9848 5.7457V6.45625Z" fill="black"/>
<path d="M13.8998 3.67383C12.5599 3.67383 11.4736 4.76008 11.4736 6.1C11.4752 7.4393 12.5605 8.52465 13.8998 8.52617C15.2397 8.52617 16.326 7.43992 16.326 6.1C16.326 4.76008 15.2397 3.67383 13.8998 3.67383ZM13.8998 7.51055C13.1208 7.51055 12.4893 6.87902 12.4893 6.1C12.4891 5.32059 13.1204 4.68836 13.8998 4.6875V4.68945C14.6788 4.68945 15.3104 5.32098 15.3104 6.1C15.3104 6.87902 14.6788 7.51055 13.8998 7.51055Z" fill="black"/>
</svg>
