<svg width="128" height="128" viewBox="0 0 128 128" fill="none" xmlns="http://www.w3.org/2000/svg">
<g clip-path="url(#clip0_566_1031)">
<path d="M26.6667 101.333H16L37.3333 122.666V112C37.3333 106.118 32.548 101.333 26.6667 101.333Z" fill="#0085FF"/>
<path d="M106.667 0H21.3337C15.4423 0 10.667 4.77533 10.667 10.6667V96H26.667C35.5037 96 42.667 103.163 42.667 112V128H106.667C112.558 128 117.334 123.225 117.334 117.333V10.6667C117.334 4.77533 112.558 0 106.667 0ZM64.0003 85.3333H32.0003V74.6667H64.0003V85.3333ZM96.0003 64H32.0003V53.3333H96.0003V64ZM96.0003 42.6667H32.0003V32H96.0003V42.6667Z" fill="#0085FF"/>
</g>
<defs>
<clipPath id="clip0_566_1031">
<rect width="128" height="128" fill="white"/>
</clipPath>
</defs>
</svg>
