<svg width="512" height="512" viewBox="0 0 512 512" fill="none" xmlns="http://www.w3.org/2000/svg">
<path d="M469.333 277.334C463.675 277.334 458.249 279.582 454.248 283.582C450.247 287.583 448 293.009 448 298.667V388.545C447.983 404.308 441.713 419.421 430.567 430.568C419.42 441.714 404.307 447.984 388.544 448.001H123.456C107.692 447.984 92.5791 441.714 81.4326 430.568C70.2862 419.421 64.0166 404.308 63.9997 388.545V298.667C63.9997 293.009 61.7521 287.583 57.7513 283.582C53.7505 279.582 48.3243 277.334 42.6663 277.334C37.0084 277.334 31.5822 279.582 27.5814 283.582C23.5806 287.583 21.333 293.009 21.333 298.667V388.545C21.3612 415.621 32.1296 441.58 51.2752 460.725C70.4208 479.871 96.3797 490.639 123.456 490.667H388.544C415.62 490.639 441.579 479.871 460.724 460.725C479.87 441.58 490.638 415.621 490.666 388.545V298.667C490.666 293.009 488.419 287.583 484.418 283.582C480.417 279.582 474.991 277.334 469.333 277.334Z" fill="black"/>
<path d="M143.083 185.749L234.667 94.1653V362.667C234.667 368.325 236.914 373.751 240.915 377.752C244.916 381.752 250.342 384 256 384C261.658 384 267.084 381.752 271.085 377.752C275.086 373.751 277.333 368.325 277.333 362.667V94.1653L368.917 185.749C372.941 189.635 378.33 191.786 383.923 191.737C389.517 191.688 394.867 189.445 398.823 185.489C402.778 181.534 405.022 176.183 405.07 170.59C405.119 164.996 402.969 159.608 399.083 155.584L271.083 27.584C267.082 23.5846 261.657 21.3379 256 21.3379C250.343 21.3379 244.918 23.5846 240.917 27.584L112.917 155.584C109.031 159.608 106.881 164.996 106.93 170.59C106.978 176.183 109.222 181.534 113.177 185.489C117.132 189.445 122.483 191.688 128.077 191.737C133.67 191.786 139.059 189.635 143.083 185.749Z" fill="black"/>
</svg>
